<?xml version="1.0" encoding="UTF-8"?>
<svg xmlns="http://www.w3.org/2000/svg" viewBox="0 0 240 320" width="240" height="320">
<desc>glyph: r U+0072</desc>
<defs><mask id="trackMask"><rect x="0" y="0" width="240" height="320" fill="#000" /><g fill="none" stroke="#fff" stroke-width="14" stroke-linecap="round" stroke-linejoin="round"><path d="M 80 240 L 80 200" /><path d="M 80 200 A 40 40 0 0 1 120 160" /></g></mask><filter id="tieJitter" x="-20%" y="-20%" width="140%" height="140%"><feTurbulence type="fractalNoise" baseFrequency="0.020" numOctaves="2" seed="9" result="n" /><feDisplacementMap in="SourceGraphic" in2="n" scale="1.6" xChannelSelector="R" yChannelSelector="G" /></filter></defs><rect x="0" y="0" width="100%" height="100%" fill="#fff" />
<g fill="none" stroke="#2b2b2b" stroke-width="14" stroke-linecap="round" stroke-linejoin="round"><path d="M 80 240 L 80 200" /><path d="M 80 200 A 40 40 0 0 1 120 160" /></g><g fill="none" stroke-linecap="round" stroke-linejoin="round" opacity="0.95"><g stroke="#b8b8b8" stroke-width="3.2"><path d="M 80 240 L 80 200" /><path d="M 80 200 A 40 40 0 0 1 120 160" /></g><g stroke="#b8b8b8" stroke-width="3.2" opacity="0.75"><path d="M 80 240 L 80 200" /><path d="M 80 200 A 40 40 0 0 1 120 160" /></g></g><g mask="url(#trackMask)" filter="url(#tieJitter)" opacity="0.9"><g fill="none" stroke="#7a4f2a" stroke-width="6" stroke-linecap="square" stroke-dasharray="1 18"><path d="M 80 240 L 80 200" /><path d="M 80 200 A 40 40 0 0 1 120 160" /></g><g fill="none" stroke="#6b4121" stroke-width="5" stroke-linecap="square" stroke-dasharray="1 26" stroke-dashoffset="9" opacity="0.65"><path d="M 80 240 L 80 200" /><path d="M 80 200 A 40 40 0 0 1 120 160" /></g></g></svg>
