<?xml version="1.0" encoding="UTF-8"?>
<svg xmlns="http://www.w3.org/2000/svg" viewBox="0 0 320 320" width="320" height="320">
<desc>glyph: w U+0077</desc>
<defs><mask id="trackMask"><rect x="0" y="0" width="320" height="320" fill="#000" /><g fill="none" stroke="#fff" stroke-width="14" stroke-linecap="butt" stroke-linejoin="round"><path d="M 80 200 L 80 160" /><path d="M 80 200 A 40 40 0 0 0 120 240 A 40 40 0 0 0 160 200" /><path d="M 160 200 L 160 160" /><path d="M 160 200 A 40 40 0 0 0 200 240 A 40 40 0 0 0 240 200" /><path d="M 240 200 L 240 160" /></g></mask><filter id="tieJitter" x="-20%" y="-20%" width="140%" height="140%"><feTurbulence type="fractalNoise" baseFrequency="0.020" numOctaves="2" seed="9" result="n" /><feDisplacementMap in="SourceGraphic" in2="n" scale="1.6" xChannelSelector="R" yChannelSelector="G" /></filter></defs><rect x="0" y="0" width="100%" height="100%" fill="#fff" />
<g fill="none" stroke="#bdbdbd" stroke-width="1" opacity="0.35" stroke-linecap="butt">
<circle cx="40" cy="40" r="40" />
<circle cx="120" cy="40" r="40" />
<circle cx="200" cy="40" r="40" />
<circle cx="280" cy="40" r="40" />
<circle cx="40" cy="120" r="40" />
<circle cx="120" cy="120" r="40" />
<circle cx="200" cy="120" r="40" />
<circle cx="280" cy="120" r="40" />
<circle cx="40" cy="200" r="40" />
<circle cx="120" cy="200" r="40" />
<circle cx="200" cy="200" r="40" />
<circle cx="280" cy="200" r="40" />
<circle cx="40" cy="280" r="40" />
<circle cx="120" cy="280" r="40" />
<circle cx="200" cy="280" r="40" />
<circle cx="280" cy="280" r="40" />
</g>
<g fill="none" stroke="#2b2b2b" stroke-width="14" stroke-linecap="butt" stroke-linejoin="round"><path d="M 80 200 L 80 160" /><path d="M 80 200 A 40 40 0 0 0 120 240 A 40 40 0 0 0 160 200" /><path d="M 160 200 L 160 160" /><path d="M 160 200 A 40 40 0 0 0 200 240 A 40 40 0 0 0 240 200" /><path d="M 240 200 L 240 160" /></g><g fill="none" stroke-linecap="butt" stroke-linejoin="round" opacity="0.95"><g stroke="#b8b8b8" stroke-width="3.2" stroke-linecap="butt" stroke-linejoin="round"><path d="M 80 200 L 80 160" /><path d="M 80 200 A 40 40 0 0 0 120 240 A 40 40 0 0 0 160 200" /><path d="M 160 200 L 160 160" /><path d="M 160 200 A 40 40 0 0 0 200 240 A 40 40 0 0 0 240 200" /><path d="M 240 200 L 240 160" /></g><g stroke="#b8b8b8" stroke-width="3.2" opacity="0.75" stroke-linecap="butt" stroke-linejoin="round"><path d="M 80 200 L 80 160" /><path d="M 80 200 A 40 40 0 0 0 120 240 A 40 40 0 0 0 160 200" /><path d="M 160 200 L 160 160" /><path d="M 160 200 A 40 40 0 0 0 200 240 A 40 40 0 0 0 240 200" /><path d="M 240 200 L 240 160" /></g></g><g mask="url(#trackMask)" filter="url(#tieJitter)" opacity="0.9"><g fill="none" stroke="#7a4f2a" stroke-width="6" stroke-linecap="butt" stroke-dasharray="1 18"><path d="M 80 200 L 80 160" /><path d="M 80 200 A 40 40 0 0 0 120 240 A 40 40 0 0 0 160 200" /><path d="M 160 200 L 160 160" /><path d="M 160 200 A 40 40 0 0 0 200 240 A 40 40 0 0 0 240 200" /><path d="M 240 200 L 240 160" /></g><g fill="none" stroke="#6b4121" stroke-width="5" stroke-linecap="butt" stroke-dasharray="1 26" stroke-dashoffset="9" opacity="0.65"><path d="M 80 200 L 80 160" /><path d="M 80 200 A 40 40 0 0 0 120 240 A 40 40 0 0 0 160 200" /><path d="M 160 200 L 160 160" /><path d="M 160 200 A 40 40 0 0 0 200 240 A 40 40 0 0 0 240 200" /><path d="M 240 200 L 240 160" /></g></g></svg>
