<?xml version="1.0" encoding="UTF-8"?>
<svg xmlns="http://www.w3.org/2000/svg" viewBox="0 0 240 320" width="240" height="320">
<desc>glyph: x U+0078</desc>
<rect x="0" y="0" width="100%" height="100%" fill="#fff" />
<g fill="none" stroke="#bdbdbd" stroke-width="1" opacity="0.35" stroke-linecap="butt">
<circle cx="40" cy="40" r="40" />
<circle cx="120" cy="40" r="40" />
<circle cx="200" cy="40" r="40" />
<circle cx="40" cy="120" r="40" />
<circle cx="120" cy="120" r="40" />
<circle cx="200" cy="120" r="40" />
<circle cx="40" cy="200" r="40" />
<circle cx="120" cy="200" r="40" />
<circle cx="200" cy="200" r="40" />
<circle cx="40" cy="280" r="40" />
<circle cx="120" cy="280" r="40" />
<circle cx="200" cy="280" r="40" />
</g>
<g fill="none" stroke-linejoin="round" stroke-linecap="butt"><g stroke="#333" stroke-width="12" stroke-linecap="butt" stroke-linejoin="round"><path d="M 80 160 A 40 40 0 0 1 80 240" /><path d="M 160 160 A 40 40 0 0 0 160 240" /></g><g stroke="#fff" stroke-width="3" stroke-dasharray="10 12" stroke-linecap="butt" stroke-linejoin="round"><path d="M 80 160 A 40 40 0 0 1 80 240" /><path d="M 160 160 A 40 40 0 0 0 160 240" /></g></g></svg>
