<?xml version="1.0" encoding="UTF-8"?>
<svg xmlns="http://www.w3.org/2000/svg" viewBox="0 0 240 320" width="240" height="320">
<desc>glyph: P U+0050</desc>
<rect x="0" y="0" width="100%" height="100%" fill="#fff" />
<g fill="none" stroke-linecap="round" stroke-linejoin="round"><g stroke="#333" stroke-width="12"><path d="M 80 240 L 80 80" /><path d="M 80 80 L 120 80" /><path d="M 120 80 A 40 40 0 0 1 160 120 A 40 40 0 0 1 120 160" /><path d="M 120 160 L 80 160" /></g><g stroke="#fff" stroke-width="3" stroke-dasharray="10 12"><path d="M 80 240 L 80 80" /><path d="M 80 80 L 120 80" /><path d="M 120 80 A 40 40 0 0 1 160 120 A 40 40 0 0 1 120 160" /><path d="M 120 160 L 80 160" /></g></g></svg>
