<?xml version="1.0" encoding="UTF-8"?>
<svg xmlns="http://www.w3.org/2000/svg" viewBox="0 0 320 320" width="320" height="320">
<desc>glyph: W U+0057</desc>
<rect x="0" y="0" width="100%" height="100%" fill="#fff" />
<g fill="none" stroke="#bdbdbd" stroke-width="1" opacity="0.35" stroke-linecap="butt">
<circle cx="40" cy="40" r="40" />
<circle cx="120" cy="40" r="40" />
<circle cx="200" cy="40" r="40" />
<circle cx="280" cy="40" r="40" />
<circle cx="40" cy="120" r="40" />
<circle cx="120" cy="120" r="40" />
<circle cx="200" cy="120" r="40" />
<circle cx="280" cy="120" r="40" />
<circle cx="40" cy="200" r="40" />
<circle cx="120" cy="200" r="40" />
<circle cx="200" cy="200" r="40" />
<circle cx="280" cy="200" r="40" />
<circle cx="40" cy="280" r="40" />
<circle cx="120" cy="280" r="40" />
<circle cx="200" cy="280" r="40" />
<circle cx="280" cy="280" r="40" />
</g>
<g fill="none" stroke-linejoin="round" stroke-linecap="butt"><g stroke="#333" stroke-width="12" stroke-linecap="butt" stroke-linejoin="round"><path d="M 80 80 L 80 200" /><path d="M 160 80 L 160 200" /><path d="M 240 80 L 240 200" /><path d="M 160 200 A 40 40 0 0 1 120 240 A 40 40 0 0 1 80 200" /><path d="M 240 200 A 40 40 0 0 1 200 240 A 40 40 0 0 1 160 200" /></g><g stroke="#fff" stroke-width="3" stroke-dasharray="10 12" stroke-linecap="butt" stroke-linejoin="round"><path d="M 80 80 L 80 200" /><path d="M 160 80 L 160 200" /><path d="M 240 80 L 240 200" /><path d="M 160 200 A 40 40 0 0 1 120 240 A 40 40 0 0 1 80 200" /><path d="M 240 200 A 40 40 0 0 1 200 240 A 40 40 0 0 1 160 200" /></g></g></svg>
