<?xml version="1.0" encoding="UTF-8"?>
<svg xmlns="http://www.w3.org/2000/svg" viewBox="0 0 240 320">
<desc>glyph: E U+0045</desc>
<rect x="0" y="0" width="100%" height="100%" fill="#fff" />
<g fill="none" stroke-linejoin="round" stroke-linecap="butt"><g stroke="#333" stroke-width="12" stroke-linecap="butt" stroke-linejoin="round"><path d="M 160 120 A 40 40 0 0 0 120 80" /><path d="M 120 80 A 40 40 0 0 0 80 120" /><path d="M 80 120 A 40 40 0 0 0 120 160" /><path d="M 120 160 A 40 40 0 0 0 80 200" /><path d="M 80 200 A 40 40 0 0 0 120 240" /><path d="M 120 240 A 40 40 0 0 0 160 200" /></g><g stroke="#fff" stroke-width="3" stroke-dasharray="10 12" stroke-linecap="butt" stroke-linejoin="round"><path d="M 160 120 A 40 40 0 0 0 120 80" /><path d="M 120 80 A 40 40 0 0 0 80 120" /><path d="M 80 120 A 40 40 0 0 0 120 160" /><path d="M 120 160 A 40 40 0 0 0 80 200" /><path d="M 80 200 A 40 40 0 0 0 120 240" /><path d="M 120 240 A 40 40 0 0 0 160 200" /></g></g></svg>
