<?xml version="1.0" encoding="UTF-8"?>
<svg xmlns="http://www.w3.org/2000/svg" viewBox="0 0 240 320" width="240" height="320">
<desc>glyph: k U+006B</desc>
<rect x="0" y="0" width="100%" height="100%" fill="#fff" />
<g fill="none" stroke-linecap="round" stroke-linejoin="round"><g stroke="#333" stroke-width="12"><path d="M 80 80 L 80 240" /><path d="M 80 200 A 40 40 0 0 1 120 160 A 40 40 0 0 1 160 200" /><path d="M 120 160 A 40 40 0 0 0 160 120" /><path d="M 160 200 L 160 240" /></g><g stroke="#fff" stroke-width="3" stroke-dasharray="10 12"><path d="M 80 80 L 80 240" /><path d="M 80 200 A 40 40 0 0 1 120 160 A 40 40 0 0 1 160 200" /><path d="M 120 160 A 40 40 0 0 0 160 120" /><path d="M 160 200 L 160 240" /></g></g></svg>
