<?xml version="1.0" encoding="UTF-8"?>
<svg xmlns="http://www.w3.org/2000/svg" viewBox="0 0 240 320" width="240" height="320">
<desc>glyph: p U+0070</desc>
<rect x="0" y="0" width="100%" height="100%" fill="#fff" />
<g fill="none" stroke-linejoin="round" stroke-linecap="butt"><g stroke="#333" stroke-width="12" stroke-linecap="butt" stroke-linejoin="round"><path d="M 80 320 L 80 200" /><path d="M 160 200 A 40 40 0 0 1 120 240" /><path d="M 120 240 A 40 40 0 0 1 80 200" /><path d="M 80 200 A 40 40 0 0 1 120 160" /><path d="M 120 160 A 40 40 0 0 1 160 200" /></g><g stroke="#fff" stroke-width="3" stroke-dasharray="10 12" stroke-linecap="butt" stroke-linejoin="round"><path d="M 80 320 L 80 200" /><path d="M 160 200 A 40 40 0 0 1 120 240" /><path d="M 120 240 A 40 40 0 0 1 80 200" /><path d="M 80 200 A 40 40 0 0 1 120 160" /><path d="M 120 160 A 40 40 0 0 1 160 200" /></g></g></svg>
