<?xml version="1.0" encoding="UTF-8"?>
<svg xmlns="http://www.w3.org/2000/svg" viewBox="0 0 240 360" width="240" height="360">
<rect x="0" y="0" width="100%" height="100%" fill="#fff"/>
<g fill="none" stroke="#bdbdbd" stroke-width="1" opacity="0.35">
<circle cx="60" cy="120" r="40" />
<circle cx="140" cy="120" r="40" />
<circle cx="220" cy="120" r="40" />
<circle cx="60" cy="200" r="40" />
<circle cx="140" cy="200" r="40" />
<circle cx="220" cy="200" r="40" />
<circle cx="60" cy="280" r="40" />
<circle cx="140" cy="280" r="40" />
<circle cx="220" cy="280" r="40" />
<circle cx="60" cy="360" r="40" />
<circle cx="140" cy="360" r="40" />
<circle cx="220" cy="360" r="40" />
</g>
<g fill="none" stroke="#000" stroke-width="9" stroke-linecap="round" stroke-linejoin="round">
<path d="M 146.4 294 A 6.4 6.4 0 0 1 140 300.4 A 6.4 6.4 0 0 1 133.6 294 A 6.4 6.4 0 0 1 140 287.6 A 6.4 6.4 0 0 1 146.4 294" />
<path d="M 226.4 294 A 6.4 6.4 0 0 1 220 300.4 A 6.4 6.4 0 0 1 213.6 294 A 6.4 6.4 0 0 1 220 287.6 A 6.4 6.4 0 0 1 226.4 294" />
</g>
</svg>
