<?xml version="1.0" encoding="UTF-8"?>
<svg xmlns="http://www.w3.org/2000/svg" viewBox="0 0 240 240" width="240" height="240">
<rect x="0" y="0" width="100%" height="100%" fill="#fff"/>
<g fill="none" stroke="#bdbdbd" stroke-width="1" opacity="0.35">
<circle cx="40" cy="40" r="40" />
<circle cx="120" cy="40" r="40" />
<circle cx="200" cy="40" r="40" />
<circle cx="40" cy="120" r="40" />
<circle cx="120" cy="120" r="40" />
<circle cx="200" cy="120" r="40" />
<circle cx="40" cy="200" r="40" />
<circle cx="120" cy="200" r="40" />
<circle cx="200" cy="200" r="40" />
</g>
<g fill="none" stroke="#000" stroke-width="9" stroke-linecap="round" stroke-linejoin="round">
<path d="M 80 40 A 40 40 0 0 1 120 0 A 40 40 0 0 1 160 40 L 160 120 A 40 40 0 0 1 120 160 A 40 40 0 0 1 80 120" />
<path d="M 120 80 A 40 40 0 0 0 160 40" />
<path d="M 120 80 A 40 40 0 0 0 80 120" />
</g>
<g fill="#1e6bff" stroke="none">
<circle cx="80" cy="40" r="3.5" />
<circle cx="120" cy="0" r="3.5" />
<circle cx="160" cy="40" r="3.5" />
<circle cx="160" cy="120" r="3.5" />
<circle cx="120" cy="160" r="3.5" />
<circle cx="80" cy="120" r="3.5" />
<circle cx="120" cy="80" r="3.5" />
</g>
</svg>
