<?xml version="1.0" encoding="UTF-8"?>
<svg xmlns="http://www.w3.org/2000/svg" viewBox="0 0 240 320" width="240" height="320">
<desc>glyph: a U+0061</desc>
<rect x="0" y="0" width="100%" height="100%" fill="#fff"/>
<g fill="none" stroke="#bdbdbd" stroke-width="1" opacity="0.35">
<circle cx="40" cy="40" r="40" />
<circle cx="120" cy="40" r="40" />
<circle cx="200" cy="40" r="40" />
<circle cx="40" cy="120" r="40" />
<circle cx="120" cy="120" r="40" />
<circle cx="200" cy="120" r="40" />
<circle cx="40" cy="200" r="40" />
<circle cx="120" cy="200" r="40" />
<circle cx="200" cy="200" r="40" />
<circle cx="40" cy="280" r="40" />
<circle cx="120" cy="280" r="40" />
<circle cx="200" cy="280" r="40" />
</g>
<g fill="none" stroke="#000" stroke-width="9" stroke-linecap="butt" stroke-linejoin="round">
<path d="M 80 120 A 40 40 0 0 1 120 80 A 40 40 0 0 1 160 120 L 160 200 A 40 40 0 0 1 120 240 A 40 40 0 0 1 80 200" />
<path d="M 120 160 A 40 40 0 0 0 160 120" />
<path d="M 120 160 A 40 40 0 0 0 80 200" />
</g>
<g fill="#1e6bff" stroke="none">
<circle cx="80" cy="120" r="3.5" />
<circle cx="120" cy="80" r="3.5" />
<circle cx="160" cy="120" r="3.5" />
<circle cx="160" cy="200" r="3.5" />
<circle cx="120" cy="240" r="3.5" />
<circle cx="80" cy="200" r="3.5" />
<circle cx="120" cy="160" r="3.5" />
</g>
</svg>
