<?xml version="1.0" encoding="UTF-8"?>
<svg xmlns="http://www.w3.org/2000/svg" viewBox="0 0 240 240" width="240" height="240">
<rect x="0" y="0" width="100%" height="100%" fill="#fff"/>
<g fill="none" stroke="#bdbdbd" stroke-width="1" opacity="0.35">
<circle cx="40" cy="40" r="40" />
<circle cx="120" cy="40" r="40" />
<circle cx="200" cy="40" r="40" />
<circle cx="40" cy="120" r="40" />
<circle cx="120" cy="120" r="40" />
<circle cx="200" cy="120" r="40" />
<circle cx="40" cy="200" r="40" />
<circle cx="120" cy="200" r="40" />
<circle cx="200" cy="200" r="40" />
</g>
<g fill="none" stroke="#000" stroke-width="9" stroke-linecap="round" stroke-linejoin="round">
<path d="M 120 0 A 40 40 0 0 1 160 40 A 40 40 0 0 1 120 80" />
<path d="M 120 80 L 120 120" />
<path d="['M 207.2 200 A 7.2 7.2 0 0 1 200 207.2 A 7.2 7.2 0 0 1 192.8 200 A 7.2 7.2 0 0 1 200 192.8 A 7.2 7.2 0 0 1 207.2 200']" />
</g>
</svg>
