<?xml version="1.0" encoding="UTF-8"?>
<svg xmlns="http://www.w3.org/2000/svg" viewBox="0 0 240 320" width="240" height="320">
<desc>glyph: „ U+201E</desc>
<rect x="0" y="0" width="100%" height="100%" fill="#fff"/>
<g fill="none" stroke="#bdbdbd" stroke-width="1" opacity="0.35">
<circle cx="40" cy="40" r="40" />
<circle cx="120" cy="40" r="40" />
<circle cx="200" cy="40" r="40" />
<circle cx="40" cy="120" r="40" />
<circle cx="120" cy="120" r="40" />
<circle cx="200" cy="120" r="40" />
<circle cx="40" cy="200" r="40" />
<circle cx="120" cy="200" r="40" />
<circle cx="200" cy="200" r="40" />
<circle cx="40" cy="280" r="40" />
<circle cx="120" cy="280" r="40" />
<circle cx="200" cy="280" r="40" />
</g>
<g fill="none" stroke="#000" stroke-width="9" stroke-linecap="butt" stroke-linejoin="round">
<path d="M 120 320 A 40 40 0 0 0 160 280" />
<path d="M 200 320 A 40 40 0 0 0 240 280" />
</g>
</svg>
