<?xml version="1.0" encoding="UTF-8"?>
<svg xmlns="http://www.w3.org/2000/svg" viewBox="0 0 240 240" width="240" height="240">
<rect x="0" y="0" width="100%" height="100%" fill="#fff"/>
<g fill="none" stroke="#bdbdbd" stroke-width="1" opacity="0.35">
<circle cx="40" cy="40" r="40" />
<circle cx="120" cy="40" r="40" />
<circle cx="200" cy="40" r="40" />
<circle cx="40" cy="120" r="40" />
<circle cx="120" cy="120" r="40" />
<circle cx="200" cy="120" r="40" />
<circle cx="40" cy="200" r="40" />
<circle cx="120" cy="200" r="40" />
<circle cx="200" cy="200" r="40" />
</g>
<g fill="none" stroke="#000" stroke-width="9" stroke-linecap="round" stroke-linejoin="round">
<path d="M 126.4 214 A 6.4 6.4 0 0 1 120 220.4 A 6.4 6.4 0 0 1 113.6 214 A 6.4 6.4 0 0 1 120 207.6 A 6.4 6.4 0 0 1 126.4 214" />
<path d="M 206.4 214 A 6.4 6.4 0 0 1 200 220.4 A 6.4 6.4 0 0 1 193.6 214 A 6.4 6.4 0 0 1 200 207.6 A 6.4 6.4 0 0 1 206.4 214" />
</g>
</svg>
