<?xml version="1.0" encoding="UTF-8"?>
<svg xmlns="http://www.w3.org/2000/svg" viewBox="0 0 240 360" width="240" height="360">
<rect x="0" y="0" width="100%" height="100%" fill="#fff"/>
<g fill="none" stroke="#bdbdbd" stroke-width="1" opacity="0.35">
<circle cx="60" cy="120" r="40" />
<circle cx="140" cy="120" r="40" />
<circle cx="220" cy="120" r="40" />
<circle cx="60" cy="200" r="40" />
<circle cx="140" cy="200" r="40" />
<circle cx="220" cy="200" r="40" />
<circle cx="60" cy="280" r="40" />
<circle cx="140" cy="280" r="40" />
<circle cx="220" cy="280" r="40" />
<circle cx="60" cy="360" r="40" />
<circle cx="140" cy="360" r="40" />
<circle cx="220" cy="360" r="40" />
</g>
<g fill="none" stroke="#000" stroke-width="9" stroke-linecap="round" stroke-linejoin="round">
<path d="M 227.2 280 A 7.2 7.2 0 0 1 220 287.2 A 7.2 7.2 0 0 1 212.8 280 A 7.2 7.2 0 0 1 220 272.8 A 7.2 7.2 0 0 1 227.2 280" />
</g>
</svg>
