<?xml version="1.0" encoding="UTF-8"?>
<svg xmlns="http://www.w3.org/2000/svg" width="240" height="240" viewBox="0 0 240 240">
  <title>glyph '2'</title>
  <g fill="none" stroke="#777" stroke-opacity="0.35" stroke-width="1.400" stroke-linecap="round" stroke-linejoin="round">
    <path d="M -10.000 -24.641 A 20.000 20.000 0 0 1 -50.000 -24.641 A 20.000 20.000 0 0 1 -10.000 -24.641" />
    <path d="M 10.000 -24.641 A 20.000 20.000 0 0 1 -30.000 -24.641 A 20.000 20.000 0 0 1 10.000 -24.641" />
    <path d="M 30.000 -24.641 A 20.000 20.000 0 0 1 -10.000 -24.641 A 20.000 20.000 0 0 1 30.000 -24.641" />
    <path d="M 50.000 -24.641 A 20.000 20.000 0 0 1 10.000 -24.641 A 20.000 20.000 0 0 1 50.000 -24.641" />
    <path d="M 70.000 -24.641 A 20.000 20.000 0 0 1 30.000 -24.641 A 20.000 20.000 0 0 1 70.000 -24.641" />
    <path d="M 90.000 -24.641 A 20.000 20.000 0 0 1 50.000 -24.641 A 20.000 20.000 0 0 1 90.000 -24.641" />
    <path d="M 110.000 -24.641 A 20.000 20.000 0 0 1 70.000 -24.641 A 20.000 20.000 0 0 1 110.000 -24.641" />
    <path d="M 130.000 -24.641 A 20.000 20.000 0 0 1 90.000 -24.641 A 20.000 20.000 0 0 1 130.000 -24.641" />
    <path d="M 150.000 -24.641 A 20.000 20.000 0 0 1 110.000 -24.641 A 20.000 20.000 0 0 1 150.000 -24.641" />
    <path d="M 170.000 -24.641 A 20.000 20.000 0 0 1 130.000 -24.641 A 20.000 20.000 0 0 1 170.000 -24.641" />
    <path d="M 190.000 -24.641 A 20.000 20.000 0 0 1 150.000 -24.641 A 20.000 20.000 0 0 1 190.000 -24.641" />
    <path d="M 210.000 -24.641 A 20.000 20.000 0 0 1 170.000 -24.641 A 20.000 20.000 0 0 1 210.000 -24.641" />
    <path d="M 230.000 -24.641 A 20.000 20.000 0 0 1 190.000 -24.641 A 20.000 20.000 0 0 1 230.000 -24.641" />
    <path d="M 250.000 -24.641 A 20.000 20.000 0 0 1 210.000 -24.641 A 20.000 20.000 0 0 1 250.000 -24.641" />
    <path d="M 270.000 -24.641 A 20.000 20.000 0 0 1 230.000 -24.641 A 20.000 20.000 0 0 1 270.000 -24.641" />
    <path d="M 290.000 -24.641 A 20.000 20.000 0 0 1 250.000 -24.641 A 20.000 20.000 0 0 1 290.000 -24.641" />
    <path d="M 0.000 -7.321 A 20.000 20.000 0 0 1 -40.000 -7.321 A 20.000 20.000 0 0 1 0.000 -7.321" />
    <path d="M 20.000 -7.321 A 20.000 20.000 0 0 1 -20.000 -7.321 A 20.000 20.000 0 0 1 20.000 -7.321" />
    <path d="M 40.000 -7.321 A 20.000 20.000 0 0 1 0.000 -7.321 A 20.000 20.000 0 0 1 40.000 -7.321" />
    <path d="M 60.000 -7.321 A 20.000 20.000 0 0 1 20.000 -7.321 A 20.000 20.000 0 0 1 60.000 -7.321" />
    <path d="M 80.000 -7.321 A 20.000 20.000 0 0 1 40.000 -7.321 A 20.000 20.000 0 0 1 80.000 -7.321" />
    <path d="M 100.000 -7.321 A 20.000 20.000 0 0 1 60.000 -7.321 A 20.000 20.000 0 0 1 100.000 -7.321" />
    <path d="M 120.000 -7.321 A 20.000 20.000 0 0 1 80.000 -7.321 A 20.000 20.000 0 0 1 120.000 -7.321" />
    <path d="M 140.000 -7.321 A 20.000 20.000 0 0 1 100.000 -7.321 A 20.000 20.000 0 0 1 140.000 -7.321" />
    <path d="M 160.000 -7.321 A 20.000 20.000 0 0 1 120.000 -7.321 A 20.000 20.000 0 0 1 160.000 -7.321" />
    <path d="M 180.000 -7.321 A 20.000 20.000 0 0 1 140.000 -7.321 A 20.000 20.000 0 0 1 180.000 -7.321" />
    <path d="M 200.000 -7.321 A 20.000 20.000 0 0 1 160.000 -7.321 A 20.000 20.000 0 0 1 200.000 -7.321" />
    <path d="M 220.000 -7.321 A 20.000 20.000 0 0 1 180.000 -7.321 A 20.000 20.000 0 0 1 220.000 -7.321" />
    <path d="M 240.000 -7.321 A 20.000 20.000 0 0 1 200.000 -7.321 A 20.000 20.000 0 0 1 240.000 -7.321" />
    <path d="M 260.000 -7.321 A 20.000 20.000 0 0 1 220.000 -7.321 A 20.000 20.000 0 0 1 260.000 -7.321" />
    <path d="M 280.000 -7.321 A 20.000 20.000 0 0 1 240.000 -7.321 A 20.000 20.000 0 0 1 280.000 -7.321" />
    <path d="M 300.000 -7.321 A 20.000 20.000 0 0 1 260.000 -7.321 A 20.000 20.000 0 0 1 300.000 -7.321" />
    <path d="M -10.000 10.000 A 20.000 20.000 0 0 1 -50.000 10.000 A 20.000 20.000 0 0 1 -10.000 10.000" />
    <path d="M 10.000 10.000 A 20.000 20.000 0 0 1 -30.000 10.000 A 20.000 20.000 0 0 1 10.000 10.000" />
    <path d="M 30.000 10.000 A 20.000 20.000 0 0 1 -10.000 10.000 A 20.000 20.000 0 0 1 30.000 10.000" />
    <path d="M 50.000 10.000 A 20.000 20.000 0 0 1 10.000 10.000 A 20.000 20.000 0 0 1 50.000 10.000" />
    <path d="M 70.000 10.000 A 20.000 20.000 0 0 1 30.000 10.000 A 20.000 20.000 0 0 1 70.000 10.000" />
    <path d="M 90.000 10.000 A 20.000 20.000 0 0 1 50.000 10.000 A 20.000 20.000 0 0 1 90.000 10.000" />
    <path d="M 110.000 10.000 A 20.000 20.000 0 0 1 70.000 10.000 A 20.000 20.000 0 0 1 110.000 10.000" />
    <path d="M 130.000 10.000 A 20.000 20.000 0 0 1 90.000 10.000 A 20.000 20.000 0 0 1 130.000 10.000" />
    <path d="M 150.000 10.000 A 20.000 20.000 0 0 1 110.000 10.000 A 20.000 20.000 0 0 1 150.000 10.000" />
    <path d="M 170.000 10.000 A 20.000 20.000 0 0 1 130.000 10.000 A 20.000 20.000 0 0 1 170.000 10.000" />
    <path d="M 190.000 10.000 A 20.000 20.000 0 0 1 150.000 10.000 A 20.000 20.000 0 0 1 190.000 10.000" />
    <path d="M 210.000 10.000 A 20.000 20.000 0 0 1 170.000 10.000 A 20.000 20.000 0 0 1 210.000 10.000" />
    <path d="M 230.000 10.000 A 20.000 20.000 0 0 1 190.000 10.000 A 20.000 20.000 0 0 1 230.000 10.000" />
    <path d="M 250.000 10.000 A 20.000 20.000 0 0 1 210.000 10.000 A 20.000 20.000 0 0 1 250.000 10.000" />
    <path d="M 270.000 10.000 A 20.000 20.000 0 0 1 230.000 10.000 A 20.000 20.000 0 0 1 270.000 10.000" />
    <path d="M 290.000 10.000 A 20.000 20.000 0 0 1 250.000 10.000 A 20.000 20.000 0 0 1 290.000 10.000" />
    <path d="M 0.000 27.321 A 20.000 20.000 0 0 1 -40.000 27.321 A 20.000 20.000 0 0 1 0.000 27.321" />
    <path d="M 20.000 27.321 A 20.000 20.000 0 0 1 -20.000 27.321 A 20.000 20.000 0 0 1 20.000 27.321" />
    <path d="M 40.000 27.321 A 20.000 20.000 0 0 1 0.000 27.321 A 20.000 20.000 0 0 1 40.000 27.321" />
    <path d="M 60.000 27.321 A 20.000 20.000 0 0 1 20.000 27.321 A 20.000 20.000 0 0 1 60.000 27.321" />
    <path d="M 80.000 27.321 A 20.000 20.000 0 0 1 40.000 27.321 A 20.000 20.000 0 0 1 80.000 27.321" />
    <path d="M 100.000 27.321 A 20.000 20.000 0 0 1 60.000 27.321 A 20.000 20.000 0 0 1 100.000 27.321" />
    <path d="M 120.000 27.321 A 20.000 20.000 0 0 1 80.000 27.321 A 20.000 20.000 0 0 1 120.000 27.321" />
    <path d="M 140.000 27.321 A 20.000 20.000 0 0 1 100.000 27.321 A 20.000 20.000 0 0 1 140.000 27.321" />
    <path d="M 160.000 27.321 A 20.000 20.000 0 0 1 120.000 27.321 A 20.000 20.000 0 0 1 160.000 27.321" />
    <path d="M 180.000 27.321 A 20.000 20.000 0 0 1 140.000 27.321 A 20.000 20.000 0 0 1 180.000 27.321" />
    <path d="M 200.000 27.321 A 20.000 20.000 0 0 1 160.000 27.321 A 20.000 20.000 0 0 1 200.000 27.321" />
    <path d="M 220.000 27.321 A 20.000 20.000 0 0 1 180.000 27.321 A 20.000 20.000 0 0 1 220.000 27.321" />
    <path d="M 240.000 27.321 A 20.000 20.000 0 0 1 200.000 27.321 A 20.000 20.000 0 0 1 240.000 27.321" />
    <path d="M 260.000 27.321 A 20.000 20.000 0 0 1 220.000 27.321 A 20.000 20.000 0 0 1 260.000 27.321" />
    <path d="M 280.000 27.321 A 20.000 20.000 0 0 1 240.000 27.321 A 20.000 20.000 0 0 1 280.000 27.321" />
    <path d="M 300.000 27.321 A 20.000 20.000 0 0 1 260.000 27.321 A 20.000 20.000 0 0 1 300.000 27.321" />
    <path d="M -10.000 44.641 A 20.000 20.000 0 0 1 -50.000 44.641 A 20.000 20.000 0 0 1 -10.000 44.641" />
    <path d="M 10.000 44.641 A 20.000 20.000 0 0 1 -30.000 44.641 A 20.000 20.000 0 0 1 10.000 44.641" />
    <path d="M 30.000 44.641 A 20.000 20.000 0 0 1 -10.000 44.641 A 20.000 20.000 0 0 1 30.000 44.641" />
    <path d="M 50.000 44.641 A 20.000 20.000 0 0 1 10.000 44.641 A 20.000 20.000 0 0 1 50.000 44.641" />
    <path d="M 70.000 44.641 A 20.000 20.000 0 0 1 30.000 44.641 A 20.000 20.000 0 0 1 70.000 44.641" />
    <path d="M 90.000 44.641 A 20.000 20.000 0 0 1 50.000 44.641 A 20.000 20.000 0 0 1 90.000 44.641" />
    <path d="M 110.000 44.641 A 20.000 20.000 0 0 1 70.000 44.641 A 20.000 20.000 0 0 1 110.000 44.641" />
    <path d="M 130.000 44.641 A 20.000 20.000 0 0 1 90.000 44.641 A 20.000 20.000 0 0 1 130.000 44.641" />
    <path d="M 150.000 44.641 A 20.000 20.000 0 0 1 110.000 44.641 A 20.000 20.000 0 0 1 150.000 44.641" />
    <path d="M 170.000 44.641 A 20.000 20.000 0 0 1 130.000 44.641 A 20.000 20.000 0 0 1 170.000 44.641" />
    <path d="M 190.000 44.641 A 20.000 20.000 0 0 1 150.000 44.641 A 20.000 20.000 0 0 1 190.000 44.641" />
    <path d="M 210.000 44.641 A 20.000 20.000 0 0 1 170.000 44.641 A 20.000 20.000 0 0 1 210.000 44.641" />
    <path d="M 230.000 44.641 A 20.000 20.000 0 0 1 190.000 44.641 A 20.000 20.000 0 0 1 230.000 44.641" />
    <path d="M 250.000 44.641 A 20.000 20.000 0 0 1 210.000 44.641 A 20.000 20.000 0 0 1 250.000 44.641" />
    <path d="M 270.000 44.641 A 20.000 20.000 0 0 1 230.000 44.641 A 20.000 20.000 0 0 1 270.000 44.641" />
    <path d="M 290.000 44.641 A 20.000 20.000 0 0 1 250.000 44.641 A 20.000 20.000 0 0 1 290.000 44.641" />
    <path d="M 0.000 61.962 A 20.000 20.000 0 0 1 -40.000 61.962 A 20.000 20.000 0 0 1 0.000 61.962" />
    <path d="M 20.000 61.962 A 20.000 20.000 0 0 1 -20.000 61.962 A 20.000 20.000 0 0 1 20.000 61.962" />
    <path d="M 40.000 61.962 A 20.000 20.000 0 0 1 0.000 61.962 A 20.000 20.000 0 0 1 40.000 61.962" />
    <path d="M 60.000 61.962 A 20.000 20.000 0 0 1 20.000 61.962 A 20.000 20.000 0 0 1 60.000 61.962" />
    <path d="M 80.000 61.962 A 20.000 20.000 0 0 1 40.000 61.962 A 20.000 20.000 0 0 1 80.000 61.962" />
    <path d="M 100.000 61.962 A 20.000 20.000 0 0 1 60.000 61.962 A 20.000 20.000 0 0 1 100.000 61.962" />
    <path d="M 120.000 61.962 A 20.000 20.000 0 0 1 80.000 61.962 A 20.000 20.000 0 0 1 120.000 61.962" />
    <path d="M 140.000 61.962 A 20.000 20.000 0 0 1 100.000 61.962 A 20.000 20.000 0 0 1 140.000 61.962" />
    <path d="M 160.000 61.962 A 20.000 20.000 0 0 1 120.000 61.962 A 20.000 20.000 0 0 1 160.000 61.962" />
    <path d="M 180.000 61.962 A 20.000 20.000 0 0 1 140.000 61.962 A 20.000 20.000 0 0 1 180.000 61.962" />
    <path d="M 200.000 61.962 A 20.000 20.000 0 0 1 160.000 61.962 A 20.000 20.000 0 0 1 200.000 61.962" />
    <path d="M 220.000 61.962 A 20.000 20.000 0 0 1 180.000 61.962 A 20.000 20.000 0 0 1 220.000 61.962" />
    <path d="M 240.000 61.962 A 20.000 20.000 0 0 1 200.000 61.962 A 20.000 20.000 0 0 1 240.000 61.962" />
    <path d="M 260.000 61.962 A 20.000 20.000 0 0 1 220.000 61.962 A 20.000 20.000 0 0 1 260.000 61.962" />
    <path d="M 280.000 61.962 A 20.000 20.000 0 0 1 240.000 61.962 A 20.000 20.000 0 0 1 280.000 61.962" />
    <path d="M 300.000 61.962 A 20.000 20.000 0 0 1 260.000 61.962 A 20.000 20.000 0 0 1 300.000 61.962" />
    <path d="M -10.000 79.282 A 20.000 20.000 0 0 1 -50.000 79.282 A 20.000 20.000 0 0 1 -10.000 79.282" />
    <path d="M 10.000 79.282 A 20.000 20.000 0 0 1 -30.000 79.282 A 20.000 20.000 0 0 1 10.000 79.282" />
    <path d="M 30.000 79.282 A 20.000 20.000 0 0 1 -10.000 79.282 A 20.000 20.000 0 0 1 30.000 79.282" />
    <path d="M 50.000 79.282 A 20.000 20.000 0 0 1 10.000 79.282 A 20.000 20.000 0 0 1 50.000 79.282" />
    <path d="M 70.000 79.282 A 20.000 20.000 0 0 1 30.000 79.282 A 20.000 20.000 0 0 1 70.000 79.282" />
    <path d="M 90.000 79.282 A 20.000 20.000 0 0 1 50.000 79.282 A 20.000 20.000 0 0 1 90.000 79.282" />
    <path d="M 110.000 79.282 A 20.000 20.000 0 0 1 70.000 79.282 A 20.000 20.000 0 0 1 110.000 79.282" />
    <path d="M 130.000 79.282 A 20.000 20.000 0 0 1 90.000 79.282 A 20.000 20.000 0 0 1 130.000 79.282" />
    <path d="M 150.000 79.282 A 20.000 20.000 0 0 1 110.000 79.282 A 20.000 20.000 0 0 1 150.000 79.282" />
    <path d="M 170.000 79.282 A 20.000 20.000 0 0 1 130.000 79.282 A 20.000 20.000 0 0 1 170.000 79.282" />
    <path d="M 190.000 79.282 A 20.000 20.000 0 0 1 150.000 79.282 A 20.000 20.000 0 0 1 190.000 79.282" />
    <path d="M 210.000 79.282 A 20.000 20.000 0 0 1 170.000 79.282 A 20.000 20.000 0 0 1 210.000 79.282" />
    <path d="M 230.000 79.282 A 20.000 20.000 0 0 1 190.000 79.282 A 20.000 20.000 0 0 1 230.000 79.282" />
    <path d="M 250.000 79.282 A 20.000 20.000 0 0 1 210.000 79.282 A 20.000 20.000 0 0 1 250.000 79.282" />
    <path d="M 270.000 79.282 A 20.000 20.000 0 0 1 230.000 79.282 A 20.000 20.000 0 0 1 270.000 79.282" />
    <path d="M 290.000 79.282 A 20.000 20.000 0 0 1 250.000 79.282 A 20.000 20.000 0 0 1 290.000 79.282" />
    <path d="M 0.000 96.603 A 20.000 20.000 0 0 1 -40.000 96.603 A 20.000 20.000 0 0 1 0.000 96.603" />
    <path d="M 20.000 96.603 A 20.000 20.000 0 0 1 -20.000 96.603 A 20.000 20.000 0 0 1 20.000 96.603" />
    <path d="M 40.000 96.603 A 20.000 20.000 0 0 1 0.000 96.603 A 20.000 20.000 0 0 1 40.000 96.603" />
    <path d="M 60.000 96.603 A 20.000 20.000 0 0 1 20.000 96.603 A 20.000 20.000 0 0 1 60.000 96.603" />
    <path d="M 80.000 96.603 A 20.000 20.000 0 0 1 40.000 96.603 A 20.000 20.000 0 0 1 80.000 96.603" />
    <path d="M 100.000 96.603 A 20.000 20.000 0 0 1 60.000 96.603 A 20.000 20.000 0 0 1 100.000 96.603" />
    <path d="M 120.000 96.603 A 20.000 20.000 0 0 1 80.000 96.603 A 20.000 20.000 0 0 1 120.000 96.603" />
    <path d="M 140.000 96.603 A 20.000 20.000 0 0 1 100.000 96.603 A 20.000 20.000 0 0 1 140.000 96.603" />
    <path d="M 160.000 96.603 A 20.000 20.000 0 0 1 120.000 96.603 A 20.000 20.000 0 0 1 160.000 96.603" />
    <path d="M 180.000 96.603 A 20.000 20.000 0 0 1 140.000 96.603 A 20.000 20.000 0 0 1 180.000 96.603" />
    <path d="M 200.000 96.603 A 20.000 20.000 0 0 1 160.000 96.603 A 20.000 20.000 0 0 1 200.000 96.603" />
    <path d="M 220.000 96.603 A 20.000 20.000 0 0 1 180.000 96.603 A 20.000 20.000 0 0 1 220.000 96.603" />
    <path d="M 240.000 96.603 A 20.000 20.000 0 0 1 200.000 96.603 A 20.000 20.000 0 0 1 240.000 96.603" />
    <path d="M 260.000 96.603 A 20.000 20.000 0 0 1 220.000 96.603 A 20.000 20.000 0 0 1 260.000 96.603" />
    <path d="M 280.000 96.603 A 20.000 20.000 0 0 1 240.000 96.603 A 20.000 20.000 0 0 1 280.000 96.603" />
    <path d="M 300.000 96.603 A 20.000 20.000 0 0 1 260.000 96.603 A 20.000 20.000 0 0 1 300.000 96.603" />
    <path d="M -10.000 113.923 A 20.000 20.000 0 0 1 -50.000 113.923 A 20.000 20.000 0 0 1 -10.000 113.923" />
    <path d="M 10.000 113.923 A 20.000 20.000 0 0 1 -30.000 113.923 A 20.000 20.000 0 0 1 10.000 113.923" />
    <path d="M 30.000 113.923 A 20.000 20.000 0 0 1 -10.000 113.923 A 20.000 20.000 0 0 1 30.000 113.923" />
    <path d="M 50.000 113.923 A 20.000 20.000 0 0 1 10.000 113.923 A 20.000 20.000 0 0 1 50.000 113.923" />
    <path d="M 70.000 113.923 A 20.000 20.000 0 0 1 30.000 113.923 A 20.000 20.000 0 0 1 70.000 113.923" />
    <path d="M 90.000 113.923 A 20.000 20.000 0 0 1 50.000 113.923 A 20.000 20.000 0 0 1 90.000 113.923" />
    <path d="M 110.000 113.923 A 20.000 20.000 0 0 1 70.000 113.923 A 20.000 20.000 0 0 1 110.000 113.923" />
    <path d="M 130.000 113.923 A 20.000 20.000 0 0 1 90.000 113.923 A 20.000 20.000 0 0 1 130.000 113.923" />
    <path d="M 150.000 113.923 A 20.000 20.000 0 0 1 110.000 113.923 A 20.000 20.000 0 0 1 150.000 113.923" />
    <path d="M 170.000 113.923 A 20.000 20.000 0 0 1 130.000 113.923 A 20.000 20.000 0 0 1 170.000 113.923" />
    <path d="M 190.000 113.923 A 20.000 20.000 0 0 1 150.000 113.923 A 20.000 20.000 0 0 1 190.000 113.923" />
    <path d="M 210.000 113.923 A 20.000 20.000 0 0 1 170.000 113.923 A 20.000 20.000 0 0 1 210.000 113.923" />
    <path d="M 230.000 113.923 A 20.000 20.000 0 0 1 190.000 113.923 A 20.000 20.000 0 0 1 230.000 113.923" />
    <path d="M 250.000 113.923 A 20.000 20.000 0 0 1 210.000 113.923 A 20.000 20.000 0 0 1 250.000 113.923" />
    <path d="M 270.000 113.923 A 20.000 20.000 0 0 1 230.000 113.923 A 20.000 20.000 0 0 1 270.000 113.923" />
    <path d="M 290.000 113.923 A 20.000 20.000 0 0 1 250.000 113.923 A 20.000 20.000 0 0 1 290.000 113.923" />
    <path d="M 0.000 131.244 A 20.000 20.000 0 0 1 -40.000 131.244 A 20.000 20.000 0 0 1 0.000 131.244" />
    <path d="M 20.000 131.244 A 20.000 20.000 0 0 1 -20.000 131.244 A 20.000 20.000 0 0 1 20.000 131.244" />
    <path d="M 40.000 131.244 A 20.000 20.000 0 0 1 0.000 131.244 A 20.000 20.000 0 0 1 40.000 131.244" />
    <path d="M 60.000 131.244 A 20.000 20.000 0 0 1 20.000 131.244 A 20.000 20.000 0 0 1 60.000 131.244" />
    <path d="M 80.000 131.244 A 20.000 20.000 0 0 1 40.000 131.244 A 20.000 20.000 0 0 1 80.000 131.244" />
    <path d="M 100.000 131.244 A 20.000 20.000 0 0 1 60.000 131.244 A 20.000 20.000 0 0 1 100.000 131.244" />
    <path d="M 120.000 131.244 A 20.000 20.000 0 0 1 80.000 131.244 A 20.000 20.000 0 0 1 120.000 131.244" />
    <path d="M 140.000 131.244 A 20.000 20.000 0 0 1 100.000 131.244 A 20.000 20.000 0 0 1 140.000 131.244" />
    <path d="M 160.000 131.244 A 20.000 20.000 0 0 1 120.000 131.244 A 20.000 20.000 0 0 1 160.000 131.244" />
    <path d="M 180.000 131.244 A 20.000 20.000 0 0 1 140.000 131.244 A 20.000 20.000 0 0 1 180.000 131.244" />
    <path d="M 200.000 131.244 A 20.000 20.000 0 0 1 160.000 131.244 A 20.000 20.000 0 0 1 200.000 131.244" />
    <path d="M 220.000 131.244 A 20.000 20.000 0 0 1 180.000 131.244 A 20.000 20.000 0 0 1 220.000 131.244" />
    <path d="M 240.000 131.244 A 20.000 20.000 0 0 1 200.000 131.244 A 20.000 20.000 0 0 1 240.000 131.244" />
    <path d="M 260.000 131.244 A 20.000 20.000 0 0 1 220.000 131.244 A 20.000 20.000 0 0 1 260.000 131.244" />
    <path d="M 280.000 131.244 A 20.000 20.000 0 0 1 240.000 131.244 A 20.000 20.000 0 0 1 280.000 131.244" />
    <path d="M 300.000 131.244 A 20.000 20.000 0 0 1 260.000 131.244 A 20.000 20.000 0 0 1 300.000 131.244" />
    <path d="M -10.000 148.564 A 20.000 20.000 0 0 1 -50.000 148.564 A 20.000 20.000 0 0 1 -10.000 148.564" />
    <path d="M 10.000 148.564 A 20.000 20.000 0 0 1 -30.000 148.564 A 20.000 20.000 0 0 1 10.000 148.564" />
    <path d="M 30.000 148.564 A 20.000 20.000 0 0 1 -10.000 148.564 A 20.000 20.000 0 0 1 30.000 148.564" />
    <path d="M 50.000 148.564 A 20.000 20.000 0 0 1 10.000 148.564 A 20.000 20.000 0 0 1 50.000 148.564" />
    <path d="M 70.000 148.564 A 20.000 20.000 0 0 1 30.000 148.564 A 20.000 20.000 0 0 1 70.000 148.564" />
    <path d="M 90.000 148.564 A 20.000 20.000 0 0 1 50.000 148.564 A 20.000 20.000 0 0 1 90.000 148.564" />
    <path d="M 110.000 148.564 A 20.000 20.000 0 0 1 70.000 148.564 A 20.000 20.000 0 0 1 110.000 148.564" />
    <path d="M 130.000 148.564 A 20.000 20.000 0 0 1 90.000 148.564 A 20.000 20.000 0 0 1 130.000 148.564" />
    <path d="M 150.000 148.564 A 20.000 20.000 0 0 1 110.000 148.564 A 20.000 20.000 0 0 1 150.000 148.564" />
    <path d="M 170.000 148.564 A 20.000 20.000 0 0 1 130.000 148.564 A 20.000 20.000 0 0 1 170.000 148.564" />
    <path d="M 190.000 148.564 A 20.000 20.000 0 0 1 150.000 148.564 A 20.000 20.000 0 0 1 190.000 148.564" />
    <path d="M 210.000 148.564 A 20.000 20.000 0 0 1 170.000 148.564 A 20.000 20.000 0 0 1 210.000 148.564" />
    <path d="M 230.000 148.564 A 20.000 20.000 0 0 1 190.000 148.564 A 20.000 20.000 0 0 1 230.000 148.564" />
    <path d="M 250.000 148.564 A 20.000 20.000 0 0 1 210.000 148.564 A 20.000 20.000 0 0 1 250.000 148.564" />
    <path d="M 270.000 148.564 A 20.000 20.000 0 0 1 230.000 148.564 A 20.000 20.000 0 0 1 270.000 148.564" />
    <path d="M 290.000 148.564 A 20.000 20.000 0 0 1 250.000 148.564 A 20.000 20.000 0 0 1 290.000 148.564" />
    <path d="M 0.000 165.885 A 20.000 20.000 0 0 1 -40.000 165.885 A 20.000 20.000 0 0 1 0.000 165.885" />
    <path d="M 20.000 165.885 A 20.000 20.000 0 0 1 -20.000 165.885 A 20.000 20.000 0 0 1 20.000 165.885" />
    <path d="M 40.000 165.885 A 20.000 20.000 0 0 1 0.000 165.885 A 20.000 20.000 0 0 1 40.000 165.885" />
    <path d="M 60.000 165.885 A 20.000 20.000 0 0 1 20.000 165.885 A 20.000 20.000 0 0 1 60.000 165.885" />
    <path d="M 80.000 165.885 A 20.000 20.000 0 0 1 40.000 165.885 A 20.000 20.000 0 0 1 80.000 165.885" />
    <path d="M 100.000 165.885 A 20.000 20.000 0 0 1 60.000 165.885 A 20.000 20.000 0 0 1 100.000 165.885" />
    <path d="M 120.000 165.885 A 20.000 20.000 0 0 1 80.000 165.885 A 20.000 20.000 0 0 1 120.000 165.885" />
    <path d="M 140.000 165.885 A 20.000 20.000 0 0 1 100.000 165.885 A 20.000 20.000 0 0 1 140.000 165.885" />
    <path d="M 160.000 165.885 A 20.000 20.000 0 0 1 120.000 165.885 A 20.000 20.000 0 0 1 160.000 165.885" />
    <path d="M 180.000 165.885 A 20.000 20.000 0 0 1 140.000 165.885 A 20.000 20.000 0 0 1 180.000 165.885" />
    <path d="M 200.000 165.885 A 20.000 20.000 0 0 1 160.000 165.885 A 20.000 20.000 0 0 1 200.000 165.885" />
    <path d="M 220.000 165.885 A 20.000 20.000 0 0 1 180.000 165.885 A 20.000 20.000 0 0 1 220.000 165.885" />
    <path d="M 240.000 165.885 A 20.000 20.000 0 0 1 200.000 165.885 A 20.000 20.000 0 0 1 240.000 165.885" />
    <path d="M 260.000 165.885 A 20.000 20.000 0 0 1 220.000 165.885 A 20.000 20.000 0 0 1 260.000 165.885" />
    <path d="M 280.000 165.885 A 20.000 20.000 0 0 1 240.000 165.885 A 20.000 20.000 0 0 1 280.000 165.885" />
    <path d="M 300.000 165.885 A 20.000 20.000 0 0 1 260.000 165.885 A 20.000 20.000 0 0 1 300.000 165.885" />
    <path d="M -10.000 183.205 A 20.000 20.000 0 0 1 -50.000 183.205 A 20.000 20.000 0 0 1 -10.000 183.205" />
    <path d="M 10.000 183.205 A 20.000 20.000 0 0 1 -30.000 183.205 A 20.000 20.000 0 0 1 10.000 183.205" />
    <path d="M 30.000 183.205 A 20.000 20.000 0 0 1 -10.000 183.205 A 20.000 20.000 0 0 1 30.000 183.205" />
    <path d="M 50.000 183.205 A 20.000 20.000 0 0 1 10.000 183.205 A 20.000 20.000 0 0 1 50.000 183.205" />
    <path d="M 70.000 183.205 A 20.000 20.000 0 0 1 30.000 183.205 A 20.000 20.000 0 0 1 70.000 183.205" />
    <path d="M 90.000 183.205 A 20.000 20.000 0 0 1 50.000 183.205 A 20.000 20.000 0 0 1 90.000 183.205" />
    <path d="M 110.000 183.205 A 20.000 20.000 0 0 1 70.000 183.205 A 20.000 20.000 0 0 1 110.000 183.205" />
    <path d="M 130.000 183.205 A 20.000 20.000 0 0 1 90.000 183.205 A 20.000 20.000 0 0 1 130.000 183.205" />
    <path d="M 150.000 183.205 A 20.000 20.000 0 0 1 110.000 183.205 A 20.000 20.000 0 0 1 150.000 183.205" />
    <path d="M 170.000 183.205 A 20.000 20.000 0 0 1 130.000 183.205 A 20.000 20.000 0 0 1 170.000 183.205" />
    <path d="M 190.000 183.205 A 20.000 20.000 0 0 1 150.000 183.205 A 20.000 20.000 0 0 1 190.000 183.205" />
    <path d="M 210.000 183.205 A 20.000 20.000 0 0 1 170.000 183.205 A 20.000 20.000 0 0 1 210.000 183.205" />
    <path d="M 230.000 183.205 A 20.000 20.000 0 0 1 190.000 183.205 A 20.000 20.000 0 0 1 230.000 183.205" />
    <path d="M 250.000 183.205 A 20.000 20.000 0 0 1 210.000 183.205 A 20.000 20.000 0 0 1 250.000 183.205" />
    <path d="M 270.000 183.205 A 20.000 20.000 0 0 1 230.000 183.205 A 20.000 20.000 0 0 1 270.000 183.205" />
    <path d="M 290.000 183.205 A 20.000 20.000 0 0 1 250.000 183.205 A 20.000 20.000 0 0 1 290.000 183.205" />
    <path d="M 0.000 200.526 A 20.000 20.000 0 0 1 -40.000 200.526 A 20.000 20.000 0 0 1 0.000 200.526" />
    <path d="M 20.000 200.526 A 20.000 20.000 0 0 1 -20.000 200.526 A 20.000 20.000 0 0 1 20.000 200.526" />
    <path d="M 40.000 200.526 A 20.000 20.000 0 0 1 0.000 200.526 A 20.000 20.000 0 0 1 40.000 200.526" />
    <path d="M 60.000 200.526 A 20.000 20.000 0 0 1 20.000 200.526 A 20.000 20.000 0 0 1 60.000 200.526" />
    <path d="M 80.000 200.526 A 20.000 20.000 0 0 1 40.000 200.526 A 20.000 20.000 0 0 1 80.000 200.526" />
    <path d="M 100.000 200.526 A 20.000 20.000 0 0 1 60.000 200.526 A 20.000 20.000 0 0 1 100.000 200.526" />
    <path d="M 120.000 200.526 A 20.000 20.000 0 0 1 80.000 200.526 A 20.000 20.000 0 0 1 120.000 200.526" />
    <path d="M 140.000 200.526 A 20.000 20.000 0 0 1 100.000 200.526 A 20.000 20.000 0 0 1 140.000 200.526" />
    <path d="M 160.000 200.526 A 20.000 20.000 0 0 1 120.000 200.526 A 20.000 20.000 0 0 1 160.000 200.526" />
    <path d="M 180.000 200.526 A 20.000 20.000 0 0 1 140.000 200.526 A 20.000 20.000 0 0 1 180.000 200.526" />
    <path d="M 200.000 200.526 A 20.000 20.000 0 0 1 160.000 200.526 A 20.000 20.000 0 0 1 200.000 200.526" />
    <path d="M 220.000 200.526 A 20.000 20.000 0 0 1 180.000 200.526 A 20.000 20.000 0 0 1 220.000 200.526" />
    <path d="M 240.000 200.526 A 20.000 20.000 0 0 1 200.000 200.526 A 20.000 20.000 0 0 1 240.000 200.526" />
    <path d="M 260.000 200.526 A 20.000 20.000 0 0 1 220.000 200.526 A 20.000 20.000 0 0 1 260.000 200.526" />
    <path d="M 280.000 200.526 A 20.000 20.000 0 0 1 240.000 200.526 A 20.000 20.000 0 0 1 280.000 200.526" />
    <path d="M 300.000 200.526 A 20.000 20.000 0 0 1 260.000 200.526 A 20.000 20.000 0 0 1 300.000 200.526" />
    <path d="M -10.000 217.846 A 20.000 20.000 0 0 1 -50.000 217.846 A 20.000 20.000 0 0 1 -10.000 217.846" />
    <path d="M 10.000 217.846 A 20.000 20.000 0 0 1 -30.000 217.846 A 20.000 20.000 0 0 1 10.000 217.846" />
    <path d="M 30.000 217.846 A 20.000 20.000 0 0 1 -10.000 217.846 A 20.000 20.000 0 0 1 30.000 217.846" />
    <path d="M 50.000 217.846 A 20.000 20.000 0 0 1 10.000 217.846 A 20.000 20.000 0 0 1 50.000 217.846" />
    <path d="M 70.000 217.846 A 20.000 20.000 0 0 1 30.000 217.846 A 20.000 20.000 0 0 1 70.000 217.846" />
    <path d="M 90.000 217.846 A 20.000 20.000 0 0 1 50.000 217.846 A 20.000 20.000 0 0 1 90.000 217.846" />
    <path d="M 110.000 217.846 A 20.000 20.000 0 0 1 70.000 217.846 A 20.000 20.000 0 0 1 110.000 217.846" />
    <path d="M 130.000 217.846 A 20.000 20.000 0 0 1 90.000 217.846 A 20.000 20.000 0 0 1 130.000 217.846" />
    <path d="M 150.000 217.846 A 20.000 20.000 0 0 1 110.000 217.846 A 20.000 20.000 0 0 1 150.000 217.846" />
    <path d="M 170.000 217.846 A 20.000 20.000 0 0 1 130.000 217.846 A 20.000 20.000 0 0 1 170.000 217.846" />
    <path d="M 190.000 217.846 A 20.000 20.000 0 0 1 150.000 217.846 A 20.000 20.000 0 0 1 190.000 217.846" />
    <path d="M 210.000 217.846 A 20.000 20.000 0 0 1 170.000 217.846 A 20.000 20.000 0 0 1 210.000 217.846" />
    <path d="M 230.000 217.846 A 20.000 20.000 0 0 1 190.000 217.846 A 20.000 20.000 0 0 1 230.000 217.846" />
    <path d="M 250.000 217.846 A 20.000 20.000 0 0 1 210.000 217.846 A 20.000 20.000 0 0 1 250.000 217.846" />
    <path d="M 270.000 217.846 A 20.000 20.000 0 0 1 230.000 217.846 A 20.000 20.000 0 0 1 270.000 217.846" />
    <path d="M 290.000 217.846 A 20.000 20.000 0 0 1 250.000 217.846 A 20.000 20.000 0 0 1 290.000 217.846" />
    <path d="M 0.000 235.167 A 20.000 20.000 0 0 1 -40.000 235.167 A 20.000 20.000 0 0 1 0.000 235.167" />
    <path d="M 20.000 235.167 A 20.000 20.000 0 0 1 -20.000 235.167 A 20.000 20.000 0 0 1 20.000 235.167" />
    <path d="M 40.000 235.167 A 20.000 20.000 0 0 1 0.000 235.167 A 20.000 20.000 0 0 1 40.000 235.167" />
    <path d="M 60.000 235.167 A 20.000 20.000 0 0 1 20.000 235.167 A 20.000 20.000 0 0 1 60.000 235.167" />
    <path d="M 80.000 235.167 A 20.000 20.000 0 0 1 40.000 235.167 A 20.000 20.000 0 0 1 80.000 235.167" />
    <path d="M 100.000 235.167 A 20.000 20.000 0 0 1 60.000 235.167 A 20.000 20.000 0 0 1 100.000 235.167" />
    <path d="M 120.000 235.167 A 20.000 20.000 0 0 1 80.000 235.167 A 20.000 20.000 0 0 1 120.000 235.167" />
    <path d="M 140.000 235.167 A 20.000 20.000 0 0 1 100.000 235.167 A 20.000 20.000 0 0 1 140.000 235.167" />
    <path d="M 160.000 235.167 A 20.000 20.000 0 0 1 120.000 235.167 A 20.000 20.000 0 0 1 160.000 235.167" />
    <path d="M 180.000 235.167 A 20.000 20.000 0 0 1 140.000 235.167 A 20.000 20.000 0 0 1 180.000 235.167" />
    <path d="M 200.000 235.167 A 20.000 20.000 0 0 1 160.000 235.167 A 20.000 20.000 0 0 1 200.000 235.167" />
    <path d="M 220.000 235.167 A 20.000 20.000 0 0 1 180.000 235.167 A 20.000 20.000 0 0 1 220.000 235.167" />
    <path d="M 240.000 235.167 A 20.000 20.000 0 0 1 200.000 235.167 A 20.000 20.000 0 0 1 240.000 235.167" />
    <path d="M 260.000 235.167 A 20.000 20.000 0 0 1 220.000 235.167 A 20.000 20.000 0 0 1 260.000 235.167" />
    <path d="M 280.000 235.167 A 20.000 20.000 0 0 1 240.000 235.167 A 20.000 20.000 0 0 1 280.000 235.167" />
    <path d="M 300.000 235.167 A 20.000 20.000 0 0 1 260.000 235.167 A 20.000 20.000 0 0 1 300.000 235.167" />
  </g>
  <g fill="none" stroke="#000" stroke-width="14.000" stroke-linecap="round" stroke-linejoin="round">
    <path d="M 85.359 61.962 A 34.641 34.641 0 0 1 154.641 61.962 L 70.000 183.205 L 190.000 183.205" />
  </g>
</svg>
