<?xml version="1.0" encoding="UTF-8"?>
<svg xmlns="http://www.w3.org/2000/svg" width="120" height="180" viewBox="0 0 120 180">
  <rect x="0" y="0" width="120" height="180" fill="none" stroke="#00f" stroke-width="1"/>
  <g fill="none" stroke="#777" stroke-width="1" opacity="0.35">
    <circle cx="-225" cy="-203.827" r="30" />
    <circle cx="-195" cy="-203.827" r="30" />
    <circle cx="-165" cy="-203.827" r="30" />
    <circle cx="-135" cy="-203.827" r="30" />
    <circle cx="-105" cy="-203.827" r="30" />
    <circle cx="-75" cy="-203.827" r="30" />
    <circle cx="-45" cy="-203.827" r="30" />
    <circle cx="-15" cy="-203.827" r="30" />
    <circle cx="15" cy="-203.827" r="30" />
    <circle cx="45" cy="-203.827" r="30" />
    <circle cx="75" cy="-203.827" r="30" />
    <circle cx="105" cy="-203.827" r="30" />
    <circle cx="135" cy="-203.827" r="30" />
    <circle cx="165" cy="-203.827" r="30" />
    <circle cx="195" cy="-203.827" r="30" />
    <circle cx="225" cy="-203.827" r="30" />
    <circle cx="255" cy="-203.827" r="30" />
    <circle cx="285" cy="-203.827" r="30" />
    <circle cx="315" cy="-203.827" r="30" />
    <circle cx="345" cy="-203.827" r="30" />
    <circle cx="375" cy="-203.827" r="30" />
    <circle cx="-240" cy="-177.846" r="30" />
    <circle cx="-210" cy="-177.846" r="30" />
    <circle cx="-180" cy="-177.846" r="30" />
    <circle cx="-150" cy="-177.846" r="30" />
    <circle cx="-120" cy="-177.846" r="30" />
    <circle cx="-90" cy="-177.846" r="30" />
    <circle cx="-60" cy="-177.846" r="30" />
    <circle cx="-30" cy="-177.846" r="30" />
    <circle cx="0" cy="-177.846" r="30" />
    <circle cx="30" cy="-177.846" r="30" />
    <circle cx="60" cy="-177.846" r="30" />
    <circle cx="90" cy="-177.846" r="30" />
    <circle cx="120" cy="-177.846" r="30" />
    <circle cx="150" cy="-177.846" r="30" />
    <circle cx="180" cy="-177.846" r="30" />
    <circle cx="210" cy="-177.846" r="30" />
    <circle cx="240" cy="-177.846" r="30" />
    <circle cx="270" cy="-177.846" r="30" />
    <circle cx="300" cy="-177.846" r="30" />
    <circle cx="330" cy="-177.846" r="30" />
    <circle cx="360" cy="-177.846" r="30" />
    <circle cx="-225" cy="-151.865" r="30" />
    <circle cx="-195" cy="-151.865" r="30" />
    <circle cx="-165" cy="-151.865" r="30" />
    <circle cx="-135" cy="-151.865" r="30" />
    <circle cx="-105" cy="-151.865" r="30" />
    <circle cx="-75" cy="-151.865" r="30" />
    <circle cx="-45" cy="-151.865" r="30" />
    <circle cx="-15" cy="-151.865" r="30" />
    <circle cx="15" cy="-151.865" r="30" />
    <circle cx="45" cy="-151.865" r="30" />
    <circle cx="75" cy="-151.865" r="30" />
    <circle cx="105" cy="-151.865" r="30" />
    <circle cx="135" cy="-151.865" r="30" />
    <circle cx="165" cy="-151.865" r="30" />
    <circle cx="195" cy="-151.865" r="30" />
    <circle cx="225" cy="-151.865" r="30" />
    <circle cx="255" cy="-151.865" r="30" />
    <circle cx="285" cy="-151.865" r="30" />
    <circle cx="315" cy="-151.865" r="30" />
    <circle cx="345" cy="-151.865" r="30" />
    <circle cx="375" cy="-151.865" r="30" />
    <circle cx="-240" cy="-125.885" r="30" />
    <circle cx="-210" cy="-125.885" r="30" />
    <circle cx="-180" cy="-125.885" r="30" />
    <circle cx="-150" cy="-125.885" r="30" />
    <circle cx="-120" cy="-125.885" r="30" />
    <circle cx="-90" cy="-125.885" r="30" />
    <circle cx="-60" cy="-125.885" r="30" />
    <circle cx="-30" cy="-125.885" r="30" />
    <circle cx="0" cy="-125.885" r="30" />
    <circle cx="30" cy="-125.885" r="30" />
    <circle cx="60" cy="-125.885" r="30" />
    <circle cx="90" cy="-125.885" r="30" />
    <circle cx="120" cy="-125.885" r="30" />
    <circle cx="150" cy="-125.885" r="30" />
    <circle cx="180" cy="-125.885" r="30" />
    <circle cx="210" cy="-125.885" r="30" />
    <circle cx="240" cy="-125.885" r="30" />
    <circle cx="270" cy="-125.885" r="30" />
    <circle cx="300" cy="-125.885" r="30" />
    <circle cx="330" cy="-125.885" r="30" />
    <circle cx="360" cy="-125.885" r="30" />
    <circle cx="-225" cy="-99.904" r="30" />
    <circle cx="-195" cy="-99.904" r="30" />
    <circle cx="-165" cy="-99.904" r="30" />
    <circle cx="-135" cy="-99.904" r="30" />
    <circle cx="-105" cy="-99.904" r="30" />
    <circle cx="-75" cy="-99.904" r="30" />
    <circle cx="-45" cy="-99.904" r="30" />
    <circle cx="-15" cy="-99.904" r="30" />
    <circle cx="15" cy="-99.904" r="30" />
    <circle cx="45" cy="-99.904" r="30" />
    <circle cx="75" cy="-99.904" r="30" />
    <circle cx="105" cy="-99.904" r="30" />
    <circle cx="135" cy="-99.904" r="30" />
    <circle cx="165" cy="-99.904" r="30" />
    <circle cx="195" cy="-99.904" r="30" />
    <circle cx="225" cy="-99.904" r="30" />
    <circle cx="255" cy="-99.904" r="30" />
    <circle cx="285" cy="-99.904" r="30" />
    <circle cx="315" cy="-99.904" r="30" />
    <circle cx="345" cy="-99.904" r="30" />
    <circle cx="375" cy="-99.904" r="30" />
    <circle cx="-240" cy="-73.923" r="30" />
    <circle cx="-210" cy="-73.923" r="30" />
    <circle cx="-180" cy="-73.923" r="30" />
    <circle cx="-150" cy="-73.923" r="30" />
    <circle cx="-120" cy="-73.923" r="30" />
    <circle cx="-90" cy="-73.923" r="30" />
    <circle cx="-60" cy="-73.923" r="30" />
    <circle cx="-30" cy="-73.923" r="30" />
    <circle cx="0" cy="-73.923" r="30" />
    <circle cx="30" cy="-73.923" r="30" />
    <circle cx="60" cy="-73.923" r="30" />
    <circle cx="90" cy="-73.923" r="30" />
    <circle cx="120" cy="-73.923" r="30" />
    <circle cx="150" cy="-73.923" r="30" />
    <circle cx="180" cy="-73.923" r="30" />
    <circle cx="210" cy="-73.923" r="30" />
    <circle cx="240" cy="-73.923" r="30" />
    <circle cx="270" cy="-73.923" r="30" />
    <circle cx="300" cy="-73.923" r="30" />
    <circle cx="330" cy="-73.923" r="30" />
    <circle cx="360" cy="-73.923" r="30" />
    <circle cx="-225" cy="-47.942" r="30" />
    <circle cx="-195" cy="-47.942" r="30" />
    <circle cx="-165" cy="-47.942" r="30" />
    <circle cx="-135" cy="-47.942" r="30" />
    <circle cx="-105" cy="-47.942" r="30" />
    <circle cx="-75" cy="-47.942" r="30" />
    <circle cx="-45" cy="-47.942" r="30" />
    <circle cx="-15" cy="-47.942" r="30" />
    <circle cx="15" cy="-47.942" r="30" />
    <circle cx="45" cy="-47.942" r="30" />
    <circle cx="75" cy="-47.942" r="30" />
    <circle cx="105" cy="-47.942" r="30" />
    <circle cx="135" cy="-47.942" r="30" />
    <circle cx="165" cy="-47.942" r="30" />
    <circle cx="195" cy="-47.942" r="30" />
    <circle cx="225" cy="-47.942" r="30" />
    <circle cx="255" cy="-47.942" r="30" />
    <circle cx="285" cy="-47.942" r="30" />
    <circle cx="315" cy="-47.942" r="30" />
    <circle cx="345" cy="-47.942" r="30" />
    <circle cx="375" cy="-47.942" r="30" />
    <circle cx="-240" cy="-21.962" r="30" />
    <circle cx="-210" cy="-21.962" r="30" />
    <circle cx="-180" cy="-21.962" r="30" />
    <circle cx="-150" cy="-21.962" r="30" />
    <circle cx="-120" cy="-21.962" r="30" />
    <circle cx="-90" cy="-21.962" r="30" />
    <circle cx="-60" cy="-21.962" r="30" />
    <circle cx="-30" cy="-21.962" r="30" />
    <circle cx="0" cy="-21.962" r="30" />
    <circle cx="30" cy="-21.962" r="30" />
    <circle cx="60" cy="-21.962" r="30" />
    <circle cx="90" cy="-21.962" r="30" />
    <circle cx="120" cy="-21.962" r="30" />
    <circle cx="150" cy="-21.962" r="30" />
    <circle cx="180" cy="-21.962" r="30" />
    <circle cx="210" cy="-21.962" r="30" />
    <circle cx="240" cy="-21.962" r="30" />
    <circle cx="270" cy="-21.962" r="30" />
    <circle cx="300" cy="-21.962" r="30" />
    <circle cx="330" cy="-21.962" r="30" />
    <circle cx="360" cy="-21.962" r="30" />
    <circle cx="-225" cy="4.019" r="30" />
    <circle cx="-195" cy="4.019" r="30" />
    <circle cx="-165" cy="4.019" r="30" />
    <circle cx="-135" cy="4.019" r="30" />
    <circle cx="-105" cy="4.019" r="30" />
    <circle cx="-75" cy="4.019" r="30" />
    <circle cx="-45" cy="4.019" r="30" />
    <circle cx="-15" cy="4.019" r="30" />
    <circle cx="15" cy="4.019" r="30" />
    <circle cx="45" cy="4.019" r="30" />
    <circle cx="75" cy="4.019" r="30" />
    <circle cx="105" cy="4.019" r="30" />
    <circle cx="135" cy="4.019" r="30" />
    <circle cx="165" cy="4.019" r="30" />
    <circle cx="195" cy="4.019" r="30" />
    <circle cx="225" cy="4.019" r="30" />
    <circle cx="255" cy="4.019" r="30" />
    <circle cx="285" cy="4.019" r="30" />
    <circle cx="315" cy="4.019" r="30" />
    <circle cx="345" cy="4.019" r="30" />
    <circle cx="375" cy="4.019" r="30" />
    <circle cx="-240" cy="30" r="30" />
    <circle cx="-210" cy="30" r="30" />
    <circle cx="-180" cy="30" r="30" />
    <circle cx="-150" cy="30" r="30" />
    <circle cx="-120" cy="30" r="30" />
    <circle cx="-90" cy="30" r="30" />
    <circle cx="-60" cy="30" r="30" />
    <circle cx="-30" cy="30" r="30" />
    <circle cx="0" cy="30" r="30" />
    <circle cx="30" cy="30" r="30" />
    <circle cx="60" cy="30" r="30" />
    <circle cx="90" cy="30" r="30" />
    <circle cx="120" cy="30" r="30" />
    <circle cx="150" cy="30" r="30" />
    <circle cx="180" cy="30" r="30" />
    <circle cx="210" cy="30" r="30" />
    <circle cx="240" cy="30" r="30" />
    <circle cx="270" cy="30" r="30" />
    <circle cx="300" cy="30" r="30" />
    <circle cx="330" cy="30" r="30" />
    <circle cx="360" cy="30" r="30" />
    <circle cx="-225" cy="55.981" r="30" />
    <circle cx="-195" cy="55.981" r="30" />
    <circle cx="-165" cy="55.981" r="30" />
    <circle cx="-135" cy="55.981" r="30" />
    <circle cx="-105" cy="55.981" r="30" />
    <circle cx="-75" cy="55.981" r="30" />
    <circle cx="-45" cy="55.981" r="30" />
    <circle cx="-15" cy="55.981" r="30" />
    <circle cx="15" cy="55.981" r="30" />
    <circle cx="45" cy="55.981" r="30" />
    <circle cx="75" cy="55.981" r="30" />
    <circle cx="105" cy="55.981" r="30" />
    <circle cx="135" cy="55.981" r="30" />
    <circle cx="165" cy="55.981" r="30" />
    <circle cx="195" cy="55.981" r="30" />
    <circle cx="225" cy="55.981" r="30" />
    <circle cx="255" cy="55.981" r="30" />
    <circle cx="285" cy="55.981" r="30" />
    <circle cx="315" cy="55.981" r="30" />
    <circle cx="345" cy="55.981" r="30" />
    <circle cx="375" cy="55.981" r="30" />
    <circle cx="-240" cy="81.962" r="30" />
    <circle cx="-210" cy="81.962" r="30" />
    <circle cx="-180" cy="81.962" r="30" />
    <circle cx="-150" cy="81.962" r="30" />
    <circle cx="-120" cy="81.962" r="30" />
    <circle cx="-90" cy="81.962" r="30" />
    <circle cx="-60" cy="81.962" r="30" />
    <circle cx="-30" cy="81.962" r="30" />
    <circle cx="0" cy="81.962" r="30" />
    <circle cx="30" cy="81.962" r="30" />
    <circle cx="60" cy="81.962" r="30" />
    <circle cx="90" cy="81.962" r="30" />
    <circle cx="120" cy="81.962" r="30" />
    <circle cx="150" cy="81.962" r="30" />
    <circle cx="180" cy="81.962" r="30" />
    <circle cx="210" cy="81.962" r="30" />
    <circle cx="240" cy="81.962" r="30" />
    <circle cx="270" cy="81.962" r="30" />
    <circle cx="300" cy="81.962" r="30" />
    <circle cx="330" cy="81.962" r="30" />
    <circle cx="360" cy="81.962" r="30" />
    <circle cx="-225" cy="107.942" r="30" />
    <circle cx="-195" cy="107.942" r="30" />
    <circle cx="-165" cy="107.942" r="30" />
    <circle cx="-135" cy="107.942" r="30" />
    <circle cx="-105" cy="107.942" r="30" />
    <circle cx="-75" cy="107.942" r="30" />
    <circle cx="-45" cy="107.942" r="30" />
    <circle cx="-15" cy="107.942" r="30" />
    <circle cx="15" cy="107.942" r="30" />
    <circle cx="45" cy="107.942" r="30" />
    <circle cx="75" cy="107.942" r="30" />
    <circle cx="105" cy="107.942" r="30" />
    <circle cx="135" cy="107.942" r="30" />
    <circle cx="165" cy="107.942" r="30" />
    <circle cx="195" cy="107.942" r="30" />
    <circle cx="225" cy="107.942" r="30" />
    <circle cx="255" cy="107.942" r="30" />
    <circle cx="285" cy="107.942" r="30" />
    <circle cx="315" cy="107.942" r="30" />
    <circle cx="345" cy="107.942" r="30" />
    <circle cx="375" cy="107.942" r="30" />
    <circle cx="-240" cy="133.923" r="30" />
    <circle cx="-210" cy="133.923" r="30" />
    <circle cx="-180" cy="133.923" r="30" />
    <circle cx="-150" cy="133.923" r="30" />
    <circle cx="-120" cy="133.923" r="30" />
    <circle cx="-90" cy="133.923" r="30" />
    <circle cx="-60" cy="133.923" r="30" />
    <circle cx="-30" cy="133.923" r="30" />
    <circle cx="0" cy="133.923" r="30" />
    <circle cx="30" cy="133.923" r="30" />
    <circle cx="60" cy="133.923" r="30" />
    <circle cx="90" cy="133.923" r="30" />
    <circle cx="120" cy="133.923" r="30" />
    <circle cx="150" cy="133.923" r="30" />
    <circle cx="180" cy="133.923" r="30" />
    <circle cx="210" cy="133.923" r="30" />
    <circle cx="240" cy="133.923" r="30" />
    <circle cx="270" cy="133.923" r="30" />
    <circle cx="300" cy="133.923" r="30" />
    <circle cx="330" cy="133.923" r="30" />
    <circle cx="360" cy="133.923" r="30" />
    <circle cx="-225" cy="159.904" r="30" />
    <circle cx="-195" cy="159.904" r="30" />
    <circle cx="-165" cy="159.904" r="30" />
    <circle cx="-135" cy="159.904" r="30" />
    <circle cx="-105" cy="159.904" r="30" />
    <circle cx="-75" cy="159.904" r="30" />
    <circle cx="-45" cy="159.904" r="30" />
    <circle cx="-15" cy="159.904" r="30" />
    <circle cx="15" cy="159.904" r="30" />
    <circle cx="45" cy="159.904" r="30" />
    <circle cx="75" cy="159.904" r="30" />
    <circle cx="105" cy="159.904" r="30" />
    <circle cx="135" cy="159.904" r="30" />
    <circle cx="165" cy="159.904" r="30" />
    <circle cx="195" cy="159.904" r="30" />
    <circle cx="225" cy="159.904" r="30" />
    <circle cx="255" cy="159.904" r="30" />
    <circle cx="285" cy="159.904" r="30" />
    <circle cx="315" cy="159.904" r="30" />
    <circle cx="345" cy="159.904" r="30" />
    <circle cx="375" cy="159.904" r="30" />
    <circle cx="-240" cy="185.885" r="30" />
    <circle cx="-210" cy="185.885" r="30" />
    <circle cx="-180" cy="185.885" r="30" />
    <circle cx="-150" cy="185.885" r="30" />
    <circle cx="-120" cy="185.885" r="30" />
    <circle cx="-90" cy="185.885" r="30" />
    <circle cx="-60" cy="185.885" r="30" />
    <circle cx="-30" cy="185.885" r="30" />
    <circle cx="0" cy="185.885" r="30" />
    <circle cx="30" cy="185.885" r="30" />
    <circle cx="60" cy="185.885" r="30" />
    <circle cx="90" cy="185.885" r="30" />
    <circle cx="120" cy="185.885" r="30" />
    <circle cx="150" cy="185.885" r="30" />
    <circle cx="180" cy="185.885" r="30" />
    <circle cx="210" cy="185.885" r="30" />
    <circle cx="240" cy="185.885" r="30" />
    <circle cx="270" cy="185.885" r="30" />
    <circle cx="300" cy="185.885" r="30" />
    <circle cx="330" cy="185.885" r="30" />
    <circle cx="360" cy="185.885" r="30" />
    <circle cx="-225" cy="211.865" r="30" />
    <circle cx="-195" cy="211.865" r="30" />
    <circle cx="-165" cy="211.865" r="30" />
    <circle cx="-135" cy="211.865" r="30" />
    <circle cx="-105" cy="211.865" r="30" />
    <circle cx="-75" cy="211.865" r="30" />
    <circle cx="-45" cy="211.865" r="30" />
    <circle cx="-15" cy="211.865" r="30" />
    <circle cx="15" cy="211.865" r="30" />
    <circle cx="45" cy="211.865" r="30" />
    <circle cx="75" cy="211.865" r="30" />
    <circle cx="105" cy="211.865" r="30" />
    <circle cx="135" cy="211.865" r="30" />
    <circle cx="165" cy="211.865" r="30" />
    <circle cx="195" cy="211.865" r="30" />
    <circle cx="225" cy="211.865" r="30" />
    <circle cx="255" cy="211.865" r="30" />
    <circle cx="285" cy="211.865" r="30" />
    <circle cx="315" cy="211.865" r="30" />
    <circle cx="345" cy="211.865" r="30" />
    <circle cx="375" cy="211.865" r="30" />
    <circle cx="-240" cy="237.846" r="30" />
    <circle cx="-210" cy="237.846" r="30" />
    <circle cx="-180" cy="237.846" r="30" />
    <circle cx="-150" cy="237.846" r="30" />
    <circle cx="-120" cy="237.846" r="30" />
    <circle cx="-90" cy="237.846" r="30" />
    <circle cx="-60" cy="237.846" r="30" />
    <circle cx="-30" cy="237.846" r="30" />
    <circle cx="0" cy="237.846" r="30" />
    <circle cx="30" cy="237.846" r="30" />
    <circle cx="60" cy="237.846" r="30" />
    <circle cx="90" cy="237.846" r="30" />
    <circle cx="120" cy="237.846" r="30" />
    <circle cx="150" cy="237.846" r="30" />
    <circle cx="180" cy="237.846" r="30" />
    <circle cx="210" cy="237.846" r="30" />
    <circle cx="240" cy="237.846" r="30" />
    <circle cx="270" cy="237.846" r="30" />
    <circle cx="300" cy="237.846" r="30" />
    <circle cx="330" cy="237.846" r="30" />
    <circle cx="360" cy="237.846" r="30" />
    <circle cx="-225" cy="263.827" r="30" />
    <circle cx="-195" cy="263.827" r="30" />
    <circle cx="-165" cy="263.827" r="30" />
    <circle cx="-135" cy="263.827" r="30" />
    <circle cx="-105" cy="263.827" r="30" />
    <circle cx="-75" cy="263.827" r="30" />
    <circle cx="-45" cy="263.827" r="30" />
    <circle cx="-15" cy="263.827" r="30" />
    <circle cx="15" cy="263.827" r="30" />
    <circle cx="45" cy="263.827" r="30" />
    <circle cx="75" cy="263.827" r="30" />
    <circle cx="105" cy="263.827" r="30" />
    <circle cx="135" cy="263.827" r="30" />
    <circle cx="165" cy="263.827" r="30" />
    <circle cx="195" cy="263.827" r="30" />
    <circle cx="225" cy="263.827" r="30" />
    <circle cx="255" cy="263.827" r="30" />
    <circle cx="285" cy="263.827" r="30" />
    <circle cx="315" cy="263.827" r="30" />
    <circle cx="345" cy="263.827" r="30" />
    <circle cx="375" cy="263.827" r="30" />
    <circle cx="-240" cy="289.808" r="30" />
    <circle cx="-210" cy="289.808" r="30" />
    <circle cx="-180" cy="289.808" r="30" />
    <circle cx="-150" cy="289.808" r="30" />
    <circle cx="-120" cy="289.808" r="30" />
    <circle cx="-90" cy="289.808" r="30" />
    <circle cx="-60" cy="289.808" r="30" />
    <circle cx="-30" cy="289.808" r="30" />
    <circle cx="0" cy="289.808" r="30" />
    <circle cx="30" cy="289.808" r="30" />
    <circle cx="60" cy="289.808" r="30" />
    <circle cx="90" cy="289.808" r="30" />
    <circle cx="120" cy="289.808" r="30" />
    <circle cx="150" cy="289.808" r="30" />
    <circle cx="180" cy="289.808" r="30" />
    <circle cx="210" cy="289.808" r="30" />
    <circle cx="240" cy="289.808" r="30" />
    <circle cx="270" cy="289.808" r="30" />
    <circle cx="300" cy="289.808" r="30" />
    <circle cx="330" cy="289.808" r="30" />
    <circle cx="360" cy="289.808" r="30" />
    <circle cx="-225" cy="315.788" r="30" />
    <circle cx="-195" cy="315.788" r="30" />
    <circle cx="-165" cy="315.788" r="30" />
    <circle cx="-135" cy="315.788" r="30" />
    <circle cx="-105" cy="315.788" r="30" />
    <circle cx="-75" cy="315.788" r="30" />
    <circle cx="-45" cy="315.788" r="30" />
    <circle cx="-15" cy="315.788" r="30" />
    <circle cx="15" cy="315.788" r="30" />
    <circle cx="45" cy="315.788" r="30" />
    <circle cx="75" cy="315.788" r="30" />
    <circle cx="105" cy="315.788" r="30" />
    <circle cx="135" cy="315.788" r="30" />
    <circle cx="165" cy="315.788" r="30" />
    <circle cx="195" cy="315.788" r="30" />
    <circle cx="225" cy="315.788" r="30" />
    <circle cx="255" cy="315.788" r="30" />
    <circle cx="285" cy="315.788" r="30" />
    <circle cx="315" cy="315.788" r="30" />
    <circle cx="345" cy="315.788" r="30" />
    <circle cx="375" cy="315.788" r="30" />
    <circle cx="-240" cy="341.769" r="30" />
    <circle cx="-210" cy="341.769" r="30" />
    <circle cx="-180" cy="341.769" r="30" />
    <circle cx="-150" cy="341.769" r="30" />
    <circle cx="-120" cy="341.769" r="30" />
    <circle cx="-90" cy="341.769" r="30" />
    <circle cx="-60" cy="341.769" r="30" />
    <circle cx="-30" cy="341.769" r="30" />
    <circle cx="0" cy="341.769" r="30" />
    <circle cx="30" cy="341.769" r="30" />
    <circle cx="60" cy="341.769" r="30" />
    <circle cx="90" cy="341.769" r="30" />
    <circle cx="120" cy="341.769" r="30" />
    <circle cx="150" cy="341.769" r="30" />
    <circle cx="180" cy="341.769" r="30" />
    <circle cx="210" cy="341.769" r="30" />
    <circle cx="240" cy="341.769" r="30" />
    <circle cx="270" cy="341.769" r="30" />
    <circle cx="300" cy="341.769" r="30" />
    <circle cx="330" cy="341.769" r="30" />
    <circle cx="360" cy="341.769" r="30" />
    <circle cx="-225" cy="367.75" r="30" />
    <circle cx="-195" cy="367.75" r="30" />
    <circle cx="-165" cy="367.75" r="30" />
    <circle cx="-135" cy="367.75" r="30" />
    <circle cx="-105" cy="367.75" r="30" />
    <circle cx="-75" cy="367.75" r="30" />
    <circle cx="-45" cy="367.75" r="30" />
    <circle cx="-15" cy="367.75" r="30" />
    <circle cx="15" cy="367.75" r="30" />
    <circle cx="45" cy="367.75" r="30" />
    <circle cx="75" cy="367.75" r="30" />
    <circle cx="105" cy="367.75" r="30" />
    <circle cx="135" cy="367.75" r="30" />
    <circle cx="165" cy="367.75" r="30" />
    <circle cx="195" cy="367.75" r="30" />
    <circle cx="225" cy="367.75" r="30" />
    <circle cx="255" cy="367.75" r="30" />
    <circle cx="285" cy="367.75" r="30" />
    <circle cx="315" cy="367.75" r="30" />
    <circle cx="345" cy="367.75" r="30" />
    <circle cx="375" cy="367.75" r="30" />
    <circle cx="-240" cy="393.731" r="30" />
    <circle cx="-210" cy="393.731" r="30" />
    <circle cx="-180" cy="393.731" r="30" />
    <circle cx="-150" cy="393.731" r="30" />
    <circle cx="-120" cy="393.731" r="30" />
    <circle cx="-90" cy="393.731" r="30" />
    <circle cx="-60" cy="393.731" r="30" />
    <circle cx="-30" cy="393.731" r="30" />
    <circle cx="0" cy="393.731" r="30" />
    <circle cx="30" cy="393.731" r="30" />
    <circle cx="60" cy="393.731" r="30" />
    <circle cx="90" cy="393.731" r="30" />
    <circle cx="120" cy="393.731" r="30" />
    <circle cx="150" cy="393.731" r="30" />
    <circle cx="180" cy="393.731" r="30" />
    <circle cx="210" cy="393.731" r="30" />
    <circle cx="240" cy="393.731" r="30" />
    <circle cx="270" cy="393.731" r="30" />
    <circle cx="300" cy="393.731" r="30" />
    <circle cx="330" cy="393.731" r="30" />
    <circle cx="360" cy="393.731" r="30" />
  </g>
</svg>
