<?xml version="1.0" encoding="UTF-8"?>
<svg xmlns="http://www.w3.org/2000/svg" width="5560" height="1080" viewBox="0 0 5560 1080">
<rect x="0" y="0" width="5560" height="1080" fill="#fff"/>
<g fill="none" stroke="#000" stroke-width="9" stroke-linecap="round" stroke-linejoin="round">
<g transform="translate(0 0)">
<path d="M 80 40 A 40 40 0 0 1 120 0 A 40 40 0 0 1 160 40 L 160 120 A 40 40 0 0 1 120 160 A 40 40 0 0 1 80 120" />
<path d="M 120 80 A 40 40 0 0 0 160 40" />
<path d="M 120 80 A 40 40 0 0 0 80 120" />
</g>
<g transform="translate(280 0)">
<path d="M 80 0 L 80 120" />
<path d="M 160 120 A 40 40 0 0 1 120 160 A 40 40 0 0 1 80 120 A 40 40 0 0 1 120 80 A 40 40 0 0 1 160 120" />
</g>
<g transform="translate(560 0)">
<path d="M 160 40 A 40 40 0 0 1 120 0 A 40 40 0 0 1 80 40 A 40 40 0 0 1 120 80 A 40 40 0 0 1 80 120 A 40 40 0 0 1 120 160 A 40 40 0 0 1 160 120" />
</g>
<g transform="translate(840 0)">
<path d="M 160 0 L 160 120" />
<path d="M 160 120 A 40 40 0 0 1 120 160 A 40 40 0 0 1 80 120 A 40 40 0 0 1 120 80 A 40 40 0 0 1 160 120" />
</g>
<g transform="translate(1120 0)">
<path d="M 160 40 A 40 40 0 0 1 120 0 A 40 40 0 0 1 80 40 A 40 40 0 0 1 120 80" />
<path d="M 120 80 A 40 40 0 0 1 80 120 A 40 40 0 0 1 120 160 A 40 40 0 0 1 160 120" />
<path d="M 120 80 L 160 80" />
</g>
<g transform="translate(1400 0)">
<path d="M 80 0 L 80 160" />
<path d="M 80 120 L 160 120" />
</g>
<g transform="translate(1680 0)">
<path d="M 160 40 A 40 40 0 0 1 120 80 A 40 40 0 0 1 80 40 A 40 40 0 0 1 120 0 A 40 40 0 0 1 160 40" />
<path d="M 160 120 A 40 40 0 0 1 120 160 A 40 40 0 0 1 80 120 A 40 40 0 0 1 120 80 A 40 40 0 0 1 160 120" />
</g>
<g transform="translate(1960 0)">
<path d="M 80 0 L 80 160" />
<path d="M 80 120 A 40 40 0 0 1 120 80 A 40 40 0 0 1 160 120" />
<path d="M 160 120 L 160 160" />
</g>
<g transform="translate(2240 0)">
<path d="M 80 0 L 80 160" />
</g>
<g transform="translate(2520 0)">
<path d="M 160 0 L 160 160" />
<path d="M 160 160 A 40 40 0 0 1 80 120" />
</g>
<g transform="translate(0 280)">
<path d="M 80 80 L 80 160" />
<path d="M 80 120 L 160 40" />
<path d="M 80 120 L 160 200" />
</g>
<g transform="translate(280 280)">
<path d="M 80 0 L 80 160" />
<path d="M 80 160 L 160 160" />
</g>
<g transform="translate(560 280)">
<path d="M 80 80 L 80 160" />
<path d="M 80 120 A 40 40 0 0 1 120 80 A 40 40 0 0 1 160 120" />
<path d="M 160 120 L 160 160" />
<path d="M 160 120 A 40 40 0 0 1 200 80 A 40 40 0 0 1 240 120" />
<path d="M 240 120 L 240 160" />
</g>
<g transform="translate(840 280)">
<path d="M 80 80 L 80 160" />
<path d="M 80 120 A 40 40 0 0 1 120 80 A 40 40 0 0 1 160 120" />
<path d="M 160 120 L 160 160" />
</g>
<g transform="translate(1120 280)">
<path d="M 160 120 A 40 40 0 0 1 120 160 A 40 40 0 0 1 80 120 A 40 40 0 0 1 120 80 A 40 40 0 0 1 160 120" />
</g>
<g transform="translate(1400 280)">
<path d="M 80 80 L 80 240" />
<path d="M 160 120 A 40 40 0 0 1 120 160 A 40 40 0 0 1 80 120 A 40 40 0 0 1 120 80 A 40 40 0 0 1 160 120" />
</g>
<g transform="translate(1680 280)">
<path d="M 160 120 A 40 40 0 0 1 120 160 A 40 40 0 0 1 80 120 A 40 40 0 0 1 120 80 A 40 40 0 0 1 160 120" />
<path d="M 120 160 L 160 200" />
</g>
<g transform="translate(1960 280)">
<path d="M 80 80 L 80 160" />
<path d="M 80 120 A 40 40 0 0 1 120 80" />
<path d="M 120 80 L 120 120" />
</g>
<g transform="translate(2240 280)">
<path d="M 160 40 A 40 40 0 0 0 80 40" />
<path d="M 80 120 A 40 40 0 0 0 160 120" />
</g>
<g transform="translate(2520 280)">
<path d="M 80 0 L 80 160" />
<path d="M 80 120 L 160 120" />
</g>
<g transform="translate(2800 280)">
<path d="M 80 80 L 80 80" />
<path d="M 160 80 L 160 80" />
<path d="M 160 120 A 40 40 0 0 1 120 160 A 40 40 0 0 1 80 120" />
</g>
<g transform="translate(3080 280)">
<path d="M 80 80 L 120 160 L 160 80" />
</g>
<g transform="translate(3360 280)">
<path d="M 80 80 L 80 160" />
<path d="M 80 120 A 40 40 0 0 0 120 160 A 40 40 0 0 0 160 120" />
<path d="M 160 80 L 160 160" />
<path d="M 160 120 A 40 40 0 0 0 200 160 A 40 40 0 0 0 240 120" />
<path d="M 240 80 L 240 160" />
</g>
<g transform="translate(3640 280)">
<path d="M 80 80 L 160 160" />
<path d="M 160 80 L 80 160" />
</g>
<g transform="translate(3920 280)">
<path d="M 80 80 L 120 120 L 160 80" />
<path d="M 120 120 L 120 200" />
</g>
<g transform="translate(4200 280)">
<path d="M 80 80 L 160 80" />
<path d="M 160 80 L 80 160" />
<path d="M 80 160 L 160 160" />
</g>
<g transform="translate(4480 280)">
<path d="M 207.2 200 A 7.2 7.2 0 0 1 200 207.2 A 7.2 7.2 0 0 1 192.8 200 A 7.2 7.2 0 0 1 200 192.8 A 7.2 7.2 0 0 1 207.2 200" />
</g>
<g transform="translate(4760 280)">
<path d="M 126.4 214 A 6.4 6.4 0 0 1 120 220.4 A 6.4 6.4 0 0 1 113.6 214 A 6.4 6.4 0 0 1 120 207.6 A 6.4 6.4 0 0 1 126.4 214" />
<path d="M 206.4 214 A 6.4 6.4 0 0 1 200 220.4 A 6.4 6.4 0 0 1 193.6 214 A 6.4 6.4 0 0 1 200 207.6 A 6.4 6.4 0 0 1 206.4 214" />
</g>
<g transform="translate(5040 280)">
<path d="M 126.4 26 A 6.4 6.4 0 0 1 120 32.4 A 6.4 6.4 0 0 1 113.6 26 A 6.4 6.4 0 0 1 120 19.6 A 6.4 6.4 0 0 1 126.4 26" />
<path d="M 206.4 26 A 6.4 6.4 0 0 1 200 32.4 A 6.4 6.4 0 0 1 193.6 26 A 6.4 6.4 0 0 1 200 19.6 A 6.4 6.4 0 0 1 206.4 26" />
</g>
<g transform="translate(5320 280)">
<path d="M 120 0 A 40 40 0 0 1 160 40 A 40 40 0 0 1 120 80" />
<path d="M 120 80 L 120 120" />
<path d="['M 207.2 200 A 7.2 7.2 0 0 1 200 207.2 A 7.2 7.2 0 0 1 192.8 200 A 7.2 7.2 0 0 1 200 192.8 A 7.2 7.2 0 0 1 207.2 200']" />
</g>
<g transform="translate(0 560)">
<path d="M 160 120 A 40 40 0 0 1 120 160 A 40 40 0 0 1 80 120 A 40 40 0 0 1 120 80 A 40 40 0 0 1 160 120" />
</g>
<g transform="translate(280 560)">
<path d="M 160 80 L 160 160" />
</g>
<g transform="translate(560 560)">
<path d="M 80 120 A 40 40 0 0 1 120 80 A 40 40 0 0 1 160 120" />
<path d="M 160 120 L 80 160" />
<path d="M 80 160 L 160 160" />
</g>
<g transform="translate(840 560)">
<path d="M 120 0 A 40 40 0 0 1 160 40 A 40 40 0 0 1 120 80" />
<path d="M 120 80 A 40 40 0 0 1 160 120 A 40 40 0 0 1 120 160" />
</g>
<g transform="translate(1120 560)">
<path d="M 160 80 L 80 120" />
<path d="M 80 120 L 160 120" />
<path d="M 160 80 L 160 160" />
</g>
<g transform="translate(1400 560)">
<path d="M 160 80 L 80 80 L 80 120" />
<path d="M 80 120 A 40 40 0 0 0 160 120" />
</g>
<g transform="translate(1680 560)">
<path d="M 160 120 A 40 40 0 0 1 120 160 A 40 40 0 0 1 80 120 A 40 40 0 0 1 120 80 A 40 40 0 0 1 160 120" />
<path d="M 120 80 L 80 40" />
</g>
<g transform="translate(1960 560)">
<path d="M 80 80 L 160 80 L 80 160" />
</g>
<g transform="translate(2240 560)">
<path d="M 160 40 A 40 40 0 0 1 120 80 A 40 40 0 0 1 80 40 A 40 40 0 0 1 120 0 A 40 40 0 0 1 160 40" />
<path d="M 160 120 A 40 40 0 0 1 120 160 A 40 40 0 0 1 80 120 A 40 40 0 0 1 120 80 A 40 40 0 0 1 160 120" />
</g>
<g transform="translate(2520 560)">
<path d="M 160 40 A 40 40 0 0 1 120 80 A 40 40 0 0 1 80 40 A 40 40 0 0 1 120 0 A 40 40 0 0 1 160 40" />
<path d="M 120 80 L 160 120" />
</g>
<g transform="translate(0 840)">
<path d="M 80 40 A 40 40 0 0 1 120 0 A 40 40 0 0 1 160 40 L 160 120 A 40 40 0 0 1 120 160 A 40 40 0 0 1 80 120" />
<path d="M 120 80 A 40 40 0 0 0 160 40" />
<path d="M 120 80 A 40 40 0 0 0 80 120" />
</g>
<g transform="translate(280 840)">
<path d="M 120 80 A 40 40 0 0 1 80 120 A 40 40 0 0 1 120 160" />
</g>
<g transform="translate(560 840)">
<path d="M 160 40 A 40 40 0 0 1 120 0 A 40 40 0 0 1 80 40 A 40 40 0 0 1 120 80 A 40 40 0 0 1 80 120 A 40 40 0 0 1 120 160 A 40 40 0 0 1 160 120" />
<path d="M 160 120 L 120 120" />
</g>
<g transform="translate(840 840)">
<path d="M 80 0 L 80 160" />
<path d="M 80 120 A 40 40 0 0 1 120 80 A 40 40 0 0 1 160 120" />
<path d="M 160 120 L 160 160" />
</g>
<g transform="translate(1120 840)">
<path d="M 80 80 L 80 160" />
<path d="M 80 120 L 160 40" />
<path d="M 80 120 L 160 200" />
</g>
<g transform="translate(1400 840)">
<path d="M 80 80 L 80 160" />
<path d="M 80 120 A 40 40 0 0 1 120 80 A 40 40 0 0 1 160 120" />
<path d="M 160 120 L 160 160" />
<path d="M 160 120 A 40 40 0 0 1 200 80 A 40 40 0 0 1 240 120" />
<path d="M 240 120 L 240 160" />
</g>
<g transform="translate(1680 840)">
<path d="M 80 80 L 80 160" />
<path d="M 80 120 A 40 40 0 0 1 120 80 A 40 40 0 0 1 160 120" />
<path d="M 160 120 L 160 160" />
</g>
<g transform="translate(1960 840)">
<path d="M 80 80 L 160 160" />
<path d="M 160 80 L 80 160" />
</g>
</g>
</svg>
